<svg width="42" height="27" viewBox="0 0 42 27" fill="none" xmlns="http://www.w3.org/2000/svg">
<path d="M18 21C17.6022 21 17.2206 21.158 16.9393 21.4393C16.658 21.7206 16.5 22.1022 16.5 22.5V25.5C16.5 25.8978 16.658 26.2794 16.9393 26.5607C17.2206 26.842 17.6022 27 18 27C18.3978 27 18.7794 26.842 19.0607 26.5607C19.342 26.2794 19.5 25.8978 19.5 25.5V22.5C19.5 22.1022 19.342 21.7206 19.0607 21.4393C18.7794 21.158 18.3978 21 18 21ZM12 21C11.6022 21 11.2206 21.158 10.9393 21.4393C10.658 21.7206 10.5 22.1022 10.5 22.5V25.5C10.5 25.8978 10.658 26.2794 10.9393 26.5607C11.2206 26.842 11.6022 27 12 27C12.3978 27 12.7794 26.842 13.0607 26.5607C13.342 26.2794 13.5 25.8978 13.5 25.5V22.5C13.5 22.1022 13.342 21.7206 13.0607 21.4393C12.7794 21.158 12.3978 21 12 21ZM24 21C23.6022 21 23.2206 21.158 22.9393 21.4393C22.658 21.7206 22.5 22.1022 22.5 22.5V25.5C22.5 25.8978 22.658 26.2794 22.9393 26.5607C23.2206 26.842 23.6022 27 24 27C24.3978 27 24.7794 26.842 25.0607 26.5607C25.342 26.2794 25.5 25.8978 25.5 25.5V22.5C25.5 22.1022 25.342 21.7206 25.0607 21.4393C24.7794 21.158 24.3978 21 24 21ZM30 21C29.6022 21 29.2206 21.158 28.9393 21.4393C28.658 21.7206 28.5 22.1022 28.5 22.5V25.5C28.5 25.8978 28.658 26.2794 28.9393 26.5607C29.2206 26.842 29.6022 27 30 27C30.3978 27 30.7794 26.842 31.0607 26.5607C31.342 26.2794 31.5 25.8978 31.5 25.5V22.5C31.5 22.1022 31.342 21.7206 31.0607 21.4393C30.7794 21.158 30.3978 21 30 21ZM39 0H3C2.20435 0 1.44129 0.316071 0.87868 0.87868C0.31607 1.44129 0 2.20435 0 3V16.5C0 17.2956 0.31607 18.0587 0.87868 18.6213C1.44129 19.1839 2.20435 19.5 3 19.5H39C39.7957 19.5 40.5587 19.1839 41.1213 18.6213C41.6839 18.0587 42 17.2956 42 16.5V3C42 2.20435 41.6839 1.44129 41.1213 0.87868C40.5587 0.316071 39.7957 0 39 0ZM34.5 15H7.5C7.10218 15 6.72064 14.842 6.43934 14.5607C6.15804 14.2794 6 13.8978 6 13.5C6 13.1022 6.15804 12.7206 6.43934 12.4393C6.72064 12.158 7.10218 12 7.5 12H34.5C34.8978 12 35.2794 12.158 35.5607 12.4393C35.842 12.7206 36 13.1022 36 13.5C36 13.8978 35.842 14.2794 35.5607 14.5607C35.2794 14.842 34.8978 15 34.5 15Z" fill="#878787"/>
</svg>
