<svg width="130" height="100" viewBox="0 0 130 100" fill="none" xmlns="http://www.w3.org/2000/svg">
<path fill-rule="evenodd" clip-rule="evenodd" d="M127.739 12.5848L64.4233 84.9389C80.0196 100.934 94.3752 105.941 106.25 90.566C115.493 65.5155 123.011 39.5751 128.497 13.4314C128.493 13.4265 128.493 13.4265 128.494 13.4265C128.691 13.4265 128.874 13.3262 128.979 13.1606C129.651 11.5419 130 9.8055 130 8.05286C130 7.23981 129.925 6.42677 129.778 5.62837C129.501 4.10098 128.739 2.70173 127.606 1.64092C127.505 1.55057 127.4 1.4632 127.292 1.37914V3.15603C127.897 3.92531 128.312 4.83453 128.492 5.8053C128.597 6.47164 128.652 7.15088 128.652 7.82697C128.652 9.45526 128.342 11.0725 127.739 12.5848H127.739Z" fill="#FFA25C"/>
<path fill-rule="evenodd" clip-rule="evenodd" d="M123.153 1.1973C124.462 1.1973 125.731 1.6697 126.72 2.52666C126.91 2.70831 127.087 2.90162 127.251 3.105V1.34794C126.119 0.490039 124.567 -0.0258056 123.175 0.000954711C120.152 0.117441 117.206 1.05484 114.668 2.70328C114.516 2.79064 114.405 2.93389 114.358 3.10248L114.314 2.96962L1.52588e-05 60.7468C11.2984 88.4834 26.5845 101.776 49.0042 88.4834C71.8669 62.1203 94.0207 36.7764 115.466 3.5456C117.762 2.08747 120.411 1.27412 123.13 1.19667C123.138 1.1973 123.146 1.1973 123.153 1.1973H123.153Z" fill="#247AD1"/>
</svg>
