<svg width="130" height="100" viewBox="0 0 130 100" fill="none" xmlns="http://www.w3.org/2000/svg">
<path fill-rule="evenodd" clip-rule="evenodd" d="M114.315 3.10156L0 60.8793C11.2986 88.6162 26.5849 101.909 49.0048 88.6162C71.8678 62.2529 94.0218 36.9086 115.467 3.67756C117.764 2.21882 120.412 1.40748 123.132 1.32923C124.45 1.32387 125.725 1.79609 126.721 2.65847C127.641 3.53851 128.261 4.68553 128.494 5.93727C128.858 8.22358 128.597 10.5658 127.74 12.7164L64.424 85.0716C80.0204 101.067 94.3763 106.074 106.251 90.6987C115.518 65.5561 122.952 39.7752 128.494 13.5583C128.591 13.5586 128.686 13.5344 128.771 13.4879C128.857 13.4415 128.929 13.3742 128.981 13.2924C129.972 10.9121 130.249 8.29505 129.778 5.76004C129.502 4.23196 128.741 2.83359 127.607 1.77231C126.377 0.708755 124.803 0.126433 123.177 0.132912C120.149 0.252067 117.21 1.18581 114.669 2.83571C114.518 2.92262 114.406 3.06591 114.359 3.23448L114.315 3.10156Z" fill="white"/>
</svg>
