<svg width="30" height="30" viewBox="0 0 30 30" fill="none" xmlns="http://www.w3.org/2000/svg">
<path d="M15 7.09343C17.0969 7.09343 19.1079 7.9264 20.5906 9.40911C22.0733 10.8918 22.9063 12.9028 22.9063 14.9997C22.9063 17.925 21.3119 20.4813 18.9532 21.8518V24.2236C18.9532 24.5731 18.8143 24.9083 18.5672 25.1554C18.3201 25.4025 17.9849 25.5413 17.6354 25.5413H12.3646C12.0151 25.5413 11.68 25.4025 11.4328 25.1554C11.1857 24.9083 11.0469 24.5731 11.0469 24.2236V21.8518C8.6882 20.4813 7.09378 17.925 7.09378 14.9997C7.09378 12.9028 7.92675 10.8918 9.40946 9.40911C10.8922 7.9264 12.9032 7.09343 15 7.09343ZM17.6354 26.8591V28.1768C17.6354 28.5262 17.4966 28.8614 17.2495 29.1085C17.0024 29.3556 16.6672 29.4945 16.3177 29.4945H13.6823C13.3328 29.4945 12.9977 29.3556 12.7506 29.1085C12.5034 28.8614 12.3646 28.5262 12.3646 28.1768V26.8591H17.6354ZM25.5417 13.682H29.4948V16.3174H25.5417V13.682ZM0.505234 13.682H4.45836V16.3174H0.505234V13.682ZM16.3177 0.504883V4.45801H13.6823V0.504883H16.3177ZM5.67065 3.79915L8.47737 6.61905L6.60622 8.47702L3.7995 5.68348L5.67065 3.79915ZM21.5227 6.60587L24.3162 3.79915L26.2006 5.68348L23.3938 8.47702L21.5227 6.60587Z" fill="#FFA25C"/>
</svg>
