<svg width="42" height="42" viewBox="0 0 42 42" fill="none" xmlns="http://www.w3.org/2000/svg">
<path d="M21 10.0002C23.9174 10.0002 26.7153 11.1591 28.7782 13.222C30.8411 15.2849 32 18.0828 32 21.0002C32 25.0702 29.7817 28.6268 26.5 30.5335V33.8335C26.5 34.3197 26.3069 34.786 25.963 35.1299C25.6192 35.4737 25.1529 35.6668 24.6667 35.6668H17.3333C16.8471 35.6668 16.3808 35.4737 16.037 35.1299C15.6932 34.786 15.5 34.3197 15.5 33.8335V30.5335C12.2183 28.6268 10 25.0702 10 21.0002C10 18.0828 11.1589 15.2849 13.2218 13.222C15.2847 11.1591 18.0826 10.0002 21 10.0002ZM24.6667 37.5002V39.3335C24.6667 39.8197 24.4735 40.286 24.1297 40.6299C23.7859 40.9737 23.3196 41.1668 22.8333 41.1668H19.1667C18.6804 41.1668 18.2141 40.9737 17.8703 40.6299C17.5265 40.286 17.3333 39.8197 17.3333 39.3335V37.5002H24.6667ZM35.6667 19.1668H41.1667V22.8335H35.6667V19.1668ZM0.833344 19.1668H6.33334V22.8335H0.833344V19.1668ZM22.8333 0.833496V6.3335H19.1667V0.833496H22.8333ZM8.02001 5.41683L11.925 9.34016L9.32168 11.9252L5.41668 8.0385L8.02001 5.41683ZM30.075 9.32183L33.9617 5.41683L36.5833 8.0385L32.6783 11.9252L30.075 9.32183Z" fill="#878787"/>
</svg>
