<svg width="30" height="28" viewBox="0 0 30 28" fill="none" xmlns="http://www.w3.org/2000/svg">
<path d="M28.8425 9.71721L8.77643 0.359645C8.52827 0.244577 8.24464 0.232491 7.9876 0.326032C7.73055 0.419573 7.52102 0.611124 7.40486 0.85877L3.23552 9.79971C3.17795 9.92244 3.14517 10.0553 3.13906 10.1907C3.13294 10.3262 3.15361 10.4615 3.19988 10.5889C3.24616 10.7163 3.31712 10.8333 3.40871 10.9333C3.5003 11.0332 3.61071 11.1141 3.73361 11.1713L6.81705 12.6088L5.74765 14.9003C5.69011 15.0231 5.65738 15.156 5.65134 15.2915C5.6453 15.4269 5.66606 15.5623 5.71243 15.6897C5.7588 15.8171 5.82987 15.9341 5.92157 16.034C6.01326 16.1339 6.12377 16.2147 6.24677 16.2718L8.12777 17.1484L5.67546 22.4078H2.62708V20.171C2.62708 19.8975 2.51843 19.6352 2.32504 19.4418C2.13164 19.2484 1.86934 19.1397 1.59583 19.1397C1.32233 19.1397 1.06003 19.2484 0.866629 19.4418C0.673232 19.6352 0.564583 19.8975 0.564583 20.171V26.705C0.564583 26.9785 0.673232 27.2408 0.866629 27.4342C1.06003 27.6276 1.32233 27.7362 1.59583 27.7362C1.86934 27.7362 2.13164 27.6276 2.32504 27.4342C2.51843 27.2408 2.62708 26.9785 2.62708 26.705V24.4703H6.33236C6.52857 24.4702 6.7207 24.4142 6.88619 24.3088C7.05169 24.2034 7.18368 24.053 7.26668 23.8752L9.99743 18.0198L11.8733 18.8943C12.1211 19.01 12.4047 19.0225 12.6617 18.9291C12.9187 18.8356 13.1281 18.644 13.2438 18.3962L14.3122 16.1037L20.3419 18.916C20.4647 18.9732 20.5975 19.0057 20.7328 19.0116C20.8681 19.0175 21.0033 18.9966 21.1306 18.9503C21.2578 18.9039 21.3747 18.833 21.4746 18.7414C21.5744 18.6499 21.6552 18.5396 21.7124 18.4168L21.8723 18.0745L24.3957 19.2501C24.5185 19.3075 24.6514 19.3402 24.7867 19.3462C24.9221 19.3523 25.0574 19.3316 25.1848 19.2853C25.3121 19.2391 25.4292 19.1681 25.5291 19.0766C25.6291 18.9851 25.71 18.8748 25.7673 18.752L28.1495 13.6421C28.2651 13.3943 28.2776 13.1108 28.1842 12.8537C28.0908 12.5967 27.8992 12.3873 27.6514 12.2716L27.274 12.0963L28.7208 11.6333C28.9181 11.5699 29.0918 11.4486 29.2192 11.2851C29.3465 11.1216 29.4217 10.9236 29.4348 10.7167C29.448 10.5099 29.3985 10.3039 29.2928 10.1256C29.1871 9.94732 29.0302 9.805 28.8425 9.71721V9.71721ZM25.5806 10.4721L23.5285 11.128L8.22265 3.98965L8.83933 2.66552L25.5817 10.4721H25.5806ZM22.7447 16.2058L24.0235 13.4606C24.0853 13.3369 24.1885 12.9997 24.3782 13.0213L25.8446 13.7051L24.3339 16.9452L22.7447 16.2058V16.2058Z" fill="#139E07"/>
</svg>
