<svg width="42" height="40" viewBox="0 0 42 40" fill="none" xmlns="http://www.w3.org/2000/svg">
<path d="M41.1345 13.7706L11.9475 0.159617C11.5866 -0.00775524 11.174 -0.0253346 10.8001 0.110725C10.4262 0.246785 10.1215 0.525404 9.95251 0.885617L3.88801 13.8906C3.80427 14.0691 3.75659 14.2624 3.74769 14.4594C3.7388 14.6564 3.76887 14.8532 3.83617 15.0385C3.90348 15.2238 4.0067 15.3941 4.13992 15.5394C4.27314 15.6848 4.43373 15.8024 4.61251 15.8856L9.09751 17.9766L7.54201 21.3096C7.45832 21.4882 7.41072 21.6816 7.40193 21.8786C7.39314 22.0757 7.42333 22.2725 7.49078 22.4579C7.55823 22.6432 7.66161 22.8134 7.79498 22.9587C7.92835 23.104 8.0891 23.2216 8.26801 23.3046L11.004 24.5796L7.43701 32.2296H3.00301V28.9761C3.00301 28.5783 2.84497 28.1968 2.56367 27.9155C2.28236 27.6342 1.90083 27.4761 1.50301 27.4761C1.10518 27.4761 0.72365 27.6342 0.442346 27.9155C0.161041 28.1968 0.00300598 28.5783 0.00300598 28.9761V38.4801C0.00300598 38.8779 0.161041 39.2595 0.442346 39.5408C0.72365 39.8221 1.10518 39.9801 1.50301 39.9801C1.90083 39.9801 2.28236 39.8221 2.56367 39.5408C2.84497 39.2595 3.00301 38.8779 3.00301 38.4801V35.2296H8.39251C8.6779 35.2296 8.95736 35.1481 9.19808 34.9948C9.4388 34.8415 9.63079 34.6227 9.75151 34.3641L13.7235 25.8471L16.452 27.1191C16.8124 27.2873 17.2249 27.3055 17.5988 27.1697C17.9726 27.0338 18.2772 26.755 18.4455 26.3946L19.9995 23.0601L28.77 27.1506C28.9486 27.2339 29.1418 27.2811 29.3386 27.2897C29.5354 27.2983 29.732 27.268 29.9171 27.2006C30.1023 27.1331 30.2723 27.0299 30.4175 26.8968C30.5627 26.7636 30.6803 26.6032 30.7635 26.4246L30.996 25.9266L34.6665 27.6366C34.8451 27.7201 35.0383 27.7677 35.2352 27.7765C35.4322 27.7853 35.6289 27.7552 35.8142 27.6879C35.9995 27.6206 36.1697 27.5174 36.315 27.3843C36.4604 27.2512 36.5782 27.0908 36.6615 26.9121L40.1265 19.4796C40.2947 19.1192 40.3129 18.7067 40.1771 18.3328C40.0412 17.959 39.7624 17.6544 39.402 17.4861L38.853 17.2311L40.9575 16.5576C41.2445 16.4655 41.4971 16.289 41.6824 16.0512C41.8677 15.8134 41.977 15.5253 41.9961 15.2245C42.0152 14.9236 41.9432 14.624 41.7895 14.3647C41.6358 14.1053 41.4076 13.8983 41.1345 13.7706ZM36.39 14.8686L33.405 15.8226L11.142 5.43962L12.039 3.51362L36.3915 14.8686H36.39ZM32.265 23.2086L34.125 19.2156C34.215 19.0356 34.365 18.5451 34.641 18.5766L36.774 19.5711L34.5765 24.2841L32.265 23.2086Z" fill="#878787"/>
</svg>
