<svg width="24" height="28" viewBox="0 0 24 28" fill="none" xmlns="http://www.w3.org/2000/svg">
<path d="M12.0025 23.8866C14.3484 23.8866 16.6417 23.1909 18.5923 21.8876C20.5428 20.5843 22.0631 18.7318 22.9609 16.5644C23.8586 14.3971 24.0935 12.0122 23.6358 9.7113C23.1782 7.41045 22.0485 5.29697 20.3897 3.63815C18.7308 1.97932 16.6174 0.849647 14.3165 0.391978C12.0157 -0.0656905 9.63076 0.169202 7.4634 1.06695C5.29604 1.9647 3.44356 3.48499 2.14023 5.43556C0.836901 7.38613 0.141251 9.67938 0.141251 12.0253C0.141251 15.1711 1.39091 18.1881 3.61533 20.4125C5.83975 22.6369 8.8567 23.8866 12.0025 23.8866ZM12.0025 2.14094C13.9574 2.14094 15.8685 2.72065 17.494 3.80676C19.1194 4.89287 20.3864 6.4366 21.1345 8.24273C21.8826 10.0489 22.0783 12.0363 21.697 13.9537C21.3156 15.871 20.3742 17.6323 18.9918 19.0146C17.6095 20.397 15.8482 21.3384 13.9308 21.7198C12.0135 22.1012 10.026 21.9054 8.21991 21.1573C6.41378 20.4092 4.87005 19.1423 3.78394 17.5168C2.69783 15.8913 2.11813 13.9803 2.11813 12.0253C2.11813 9.40382 3.15951 6.88969 5.01319 5.03601C6.86687 3.18233 9.381 2.14094 12.0025 2.14094Z" fill="#043697"/>
<path d="M19.91 25.8637H17.5575L16.8458 24.4304C16.7906 24.3102 16.7117 24.2022 16.614 24.113C16.5162 24.0237 16.4015 23.955 16.2767 23.911C16.1519 23.8669 16.0195 23.8483 15.8874 23.8564C15.7552 23.8645 15.6261 23.899 15.5076 23.9579C15.389 24.0169 15.2836 24.099 15.1974 24.1995C15.1112 24.3 15.0461 24.4167 15.0059 24.5428C14.9657 24.6689 14.9512 24.8018 14.9634 24.9337C14.9755 25.0655 15.014 25.1935 15.0765 25.3101L15.3533 25.8538H8.66158L8.93834 25.3101C9.0009 25.1935 9.03939 25.0655 9.05153 24.9337C9.06366 24.8018 9.0492 24.6689 9.009 24.5428C8.9688 24.4167 8.90368 24.3 8.8175 24.1995C8.73132 24.099 8.62584 24.0169 8.50732 23.9579C8.38879 23.899 8.25964 23.8645 8.12751 23.8564C7.99539 23.8483 7.863 23.8669 7.73818 23.911C7.61336 23.955 7.49867 24.0237 7.4009 24.113C7.30314 24.2022 7.22429 24.3102 7.16904 24.4304L6.44748 25.8637H4.095C3.83285 25.8637 3.58143 25.9678 3.39607 26.1532C3.2107 26.3385 3.10656 26.59 3.10656 26.8521C3.10656 27.1143 3.2107 27.3657 3.39607 27.551C3.58143 27.7364 3.83285 27.8405 4.095 27.8405H19.91C20.1721 27.8405 20.4236 27.7364 20.6089 27.551C20.7943 27.3657 20.8984 27.1143 20.8984 26.8521C20.8984 26.59 20.7943 26.3385 20.6089 26.1532C20.4236 25.9678 20.1721 25.8637 19.91 25.8637ZM7.73245 18.4504C8.71359 18.4821 9.6697 18.1373 10.4048 17.4867C11.1399 16.8362 11.5984 15.929 11.6862 14.9513C11.7908 14.9702 11.8964 14.9834 12.0025 14.9909C12.1243 14.9984 12.2464 14.9984 12.3682 14.9909C12.3843 15.1806 12.414 15.3689 12.4572 15.5543C12.6628 16.334 13.102 17.0322 13.7157 17.5552C14.3294 18.0783 15.0884 18.4012 15.8909 18.4806C16.6934 18.56 17.5009 18.3921 18.2053 17.9995C18.9096 17.6068 19.4771 17.0082 19.8315 16.2839C20.186 15.5596 20.3105 14.7442 20.1883 13.9471C20.0662 13.1501 19.7032 12.4094 19.1482 11.8245C18.5931 11.2395 17.8724 10.8383 17.0828 10.6746C16.2932 10.5109 15.4725 10.5926 14.7306 10.9086C14.6321 10.683 14.506 10.4705 14.355 10.276C15.0236 9.78101 15.5191 9.08772 15.7709 8.2948C16.0226 7.50188 16.0178 6.64975 15.7572 5.8597C15.4966 5.06964 14.9934 4.38193 14.3193 3.89444C13.6452 3.40695 12.8344 3.14453 12.0025 3.14453C11.1706 3.14453 10.3598 3.40695 9.6857 3.89444C9.01156 4.38193 8.50838 5.06964 8.24776 5.8597C7.98714 6.64975 7.98238 7.50188 8.23414 8.2948C8.48591 9.08772 8.98137 9.78101 9.65002 10.276C9.49904 10.4705 9.37287 10.683 9.27441 10.9086C8.73434 10.6745 8.14883 10.564 7.56059 10.5851C6.97236 10.6061 6.39625 10.7583 5.87432 11.0304C5.35238 11.3025 4.89779 11.6877 4.54372 12.1579C4.18964 12.6281 3.94502 13.1715 3.82771 13.7483C3.71039 14.3251 3.72334 14.9208 3.86561 15.492C4.00789 16.0631 4.27589 16.5953 4.65006 17.0497C5.02424 17.504 5.49514 17.8691 6.02841 18.1183C6.56168 18.3675 7.14385 18.4944 7.73245 18.4899V18.4504ZM12.9909 12.0255C12.9909 12.221 12.933 12.4121 12.8244 12.5747C12.7157 12.7372 12.5614 12.8639 12.3808 12.9387C12.2001 13.0136 12.0014 13.0331 11.8097 12.995C11.6179 12.9569 11.4418 12.8627 11.3036 12.7245C11.1653 12.5862 11.0712 12.4101 11.0331 12.2184C10.9949 12.0266 11.0145 11.8279 11.0893 11.6473C11.1641 11.4667 11.2908 11.3123 11.4534 11.2037C11.6159 11.0951 11.807 11.0371 12.0025 11.0371C12.2646 11.0371 12.5161 11.1412 12.7014 11.3266C12.8868 11.512 12.9909 11.7634 12.9909 12.0255Z" fill="#043697"/>
</svg>
