<svg width="36" height="42" viewBox="0 0 36 42" fill="none" xmlns="http://www.w3.org/2000/svg">
<path d="M18 36C21.5601 36 25.0402 34.9443 28.0003 32.9665C30.9604 30.9886 33.2675 28.1774 34.6298 24.8883C35.9922 21.5992 36.3487 17.98 35.6541 14.4884C34.9596 10.9967 33.2453 7.78943 30.7279 5.27209C28.2106 2.75474 25.0033 1.04041 21.5116 0.345873C18.02 -0.348661 14.4008 0.00779915 11.1117 1.37018C7.82263 2.73255 5.01141 5.03966 3.03355 7.99974C1.05568 10.9598 0 14.4399 0 18C0 22.7739 1.89642 27.3523 5.27208 30.7279C8.64773 34.1036 13.2261 36 18 36ZM18 3.00001C20.9667 3.00001 23.8668 3.87974 26.3336 5.52796C28.8003 7.17618 30.7229 9.51886 31.8582 12.2598C32.9935 15.0006 33.2906 18.0166 32.7118 20.9264C32.133 23.8361 30.7044 26.5088 28.6066 28.6066C26.5088 30.7044 23.8361 32.133 20.9264 32.7118C18.0166 33.2906 15.0006 32.9935 12.2597 31.8582C9.51886 30.7229 7.17618 28.8003 5.52796 26.3336C3.87973 23.8668 3 20.9667 3 18C3 14.0218 4.58035 10.2065 7.3934 7.39341C10.2064 4.58036 14.0218 3.00001 18 3.00001Z" fill="#878787"/>
<path d="M30 38.9998H26.43L25.35 36.8248C25.2662 36.6423 25.1465 36.4784 24.9981 36.343C24.8498 36.2076 24.6757 36.1034 24.4863 36.0365C24.2969 35.9696 24.096 35.9415 23.8955 35.9537C23.695 35.966 23.499 36.0183 23.3191 36.1078C23.1392 36.1972 22.9792 36.3219 22.8484 36.4743C22.7176 36.6268 22.6188 36.804 22.5578 36.9954C22.4968 37.1868 22.4748 37.3884 22.4932 37.5885C22.5117 37.7885 22.5701 37.9828 22.665 38.1598L23.085 38.9848H12.93L13.35 38.1598C13.4449 37.9828 13.5033 37.7885 13.5218 37.5885C13.5402 37.3884 13.5182 37.1868 13.4572 36.9954C13.3962 36.804 13.2974 36.6268 13.1666 36.4743C13.0358 36.3219 12.8758 36.1972 12.6959 36.1078C12.516 36.0183 12.32 35.966 12.1195 35.9537C11.919 35.9415 11.7181 35.9696 11.5287 36.0365C11.3393 36.1034 11.1652 36.2076 11.0169 36.343C10.8685 36.4784 10.7488 36.6423 10.665 36.8248L9.57 38.9998H6C5.60218 38.9998 5.22064 39.1578 4.93934 39.4392C4.65804 39.7205 4.5 40.102 4.5 40.4998C4.5 40.8976 4.65804 41.2792 4.93934 41.5605C5.22064 41.8418 5.60218 41.9998 6 41.9998H30C30.3978 41.9998 30.7794 41.8418 31.0607 41.5605C31.342 41.2792 31.5 40.8976 31.5 40.4998C31.5 40.102 31.342 39.7205 31.0607 39.4392C30.7794 39.1578 30.3978 38.9998 30 38.9998ZM11.52 27.7498C13.0089 27.7979 14.4599 27.2747 15.5755 26.2874C16.691 25.3001 17.3867 23.9236 17.52 22.4398C17.6788 22.4684 17.839 22.4884 18 22.4998C18.1848 22.5112 18.3702 22.5112 18.555 22.4998C18.5794 22.7877 18.6245 23.0734 18.69 23.3548C19.0021 24.5381 19.6685 25.5977 20.5999 26.3914C21.5312 27.1851 22.6831 27.6751 23.9009 27.7956C25.1186 27.9161 26.3442 27.6613 27.413 27.0655C28.4819 26.4697 29.343 25.5613 29.8809 24.4621C30.4188 23.3629 30.6078 22.1255 30.4224 20.9159C30.237 19.7063 29.6862 18.5823 28.8439 17.6946C28.0015 16.807 26.9079 16.1981 25.7096 15.9497C24.5114 15.7013 23.2658 15.8252 22.14 16.3048C21.9906 15.9624 21.7991 15.6399 21.57 15.3448C22.5847 14.5936 23.3366 13.5415 23.7187 12.3382C24.1007 11.1349 24.0935 9.84179 23.698 8.64285C23.3025 7.44391 22.5389 6.40027 21.5158 5.66048C20.4928 4.9207 19.2625 4.52246 18 4.52246C16.7375 4.52246 15.5072 4.9207 14.4842 5.66048C13.4611 6.40027 12.6975 7.44391 12.302 8.64285C11.9065 9.84179 11.8993 11.1349 12.2813 12.3382C12.6634 13.5415 13.4153 14.5936 14.43 15.3448C14.2009 15.6399 14.0094 15.9624 13.86 16.3048C13.0404 15.9496 12.1519 15.7819 11.2592 15.8138C10.3665 15.8458 9.49227 16.0767 8.7002 16.4896C7.90814 16.9026 7.21828 17.4872 6.68095 18.2007C6.14363 18.9143 5.7724 19.7388 5.59437 20.6141C5.41634 21.4895 5.43599 22.3935 5.6519 23.2602C5.8678 24.127 6.27451 24.9346 6.84234 25.6241C7.41017 26.3137 8.12479 26.8677 8.93405 27.2459C9.74331 27.624 10.6268 27.8167 11.52 27.8098V27.7498ZM19.5 17.9998C19.5 18.2965 19.412 18.5865 19.2472 18.8332C19.0824 19.0798 18.8481 19.2721 18.574 19.3856C18.2999 19.4992 17.9983 19.5289 17.7074 19.471C17.4164 19.4131 17.1491 19.2703 16.9393 19.0605C16.7296 18.8507 16.5867 18.5834 16.5288 18.2924C16.4709 18.0015 16.5006 17.6999 16.6142 17.4258C16.7277 17.1517 16.92 16.9174 17.1666 16.7526C17.4133 16.5878 17.7033 16.4998 18 16.4998C18.3978 16.4998 18.7794 16.6579 19.0607 16.9392C19.342 17.2205 19.5 17.602 19.5 17.9998Z" fill="#878787"/>
</svg>
