<svg width="45" height="45" viewBox="0 0 45 45" fill="none" xmlns="http://www.w3.org/2000/svg">
<path d="M32.7214 5.81929C33.1662 5.37072 33.6956 5.01483 34.279 4.7722C34.8623 4.52958 35.4879 4.40504 36.1197 4.40579C37.3984 4.40579 38.6057 4.90767 39.518 5.81929C40.1539 6.45179 41.1247 5.48586 40.4901 4.84717C38.1774 2.44092 34.062 2.44092 31.7492 4.84717C31.1181 5.48517 32.0813 6.45317 32.7214 5.81929Z" fill="#878787"/>
<path d="M33.6914 6.78324C33.0554 7.41643 34.0131 8.39199 34.6566 7.76156C35.45 6.98056 36.7899 6.98056 37.5826 7.76156C37.6461 7.82823 37.7224 7.88147 37.8069 7.91811C37.8913 7.95475 37.9823 7.97405 38.0744 7.97486C38.1665 7.97567 38.2578 7.95798 38.3429 7.92283C38.428 7.88768 38.5052 7.83579 38.5698 7.77025C38.6345 7.7047 38.6854 7.62683 38.7194 7.54126C38.7534 7.45569 38.7698 7.36415 38.7678 7.2721C38.7657 7.18004 38.7452 7.08933 38.7074 7.00536C38.6697 6.92138 38.6154 6.84585 38.5479 6.78324C37.2526 5.45568 34.9866 5.45568 33.6914 6.78324ZM40.6915 38.0934H40.004V14.5107C40.0028 14.0361 39.8793 13.5698 39.6455 13.1567C39.4116 12.7437 39.0753 12.3979 38.6689 12.1526L23.5439 3.07762C23.1167 2.82046 22.6276 2.68457 22.129 2.68457C21.6304 2.68457 21.1413 2.82046 20.7141 3.07762L5.58913 12.1526C5.1827 12.3978 4.84632 12.7436 4.61246 13.1567C4.3786 13.5697 4.25514 14.0361 4.25401 14.5107V38.0934H3.56651C0.856385 38.1607 0.839197 42.1455 3.56651 42.2184H40.6915C43.3975 42.1524 43.4223 38.1662 40.6915 38.0934ZM5.62901 14.5107C5.62901 14.0309 5.88476 13.5785 6.29657 13.3317L21.4216 4.25668C21.6353 4.12846 21.8798 4.06073 22.129 4.06073C22.3782 4.06073 22.6227 4.12846 22.8364 4.25668L37.9614 13.3317C38.3739 13.5792 38.629 14.0309 38.629 14.5107V38.0934H37.254V16.0934C37.254 14.9556 36.3286 14.0309 35.1915 14.0309H9.06651C7.92938 14.0309 7.00401 14.9556 7.00401 16.0934V38.0934H5.62901V14.5107ZM8.37901 20.9059V18.8434H35.879V20.9059H8.37901ZM35.879 22.2809V38.0934H8.37901V22.2809H35.879ZM8.37901 17.4684V16.0934C8.37901 15.7139 8.6877 15.4059 9.06651 15.4059H35.1915C35.5703 15.4059 35.879 15.7139 35.879 16.0934V17.4684H8.37901ZM40.6915 40.8434H3.56651C2.67757 40.831 2.65213 39.4849 3.56651 39.4684H40.6915C41.5804 39.4801 41.6066 40.8262 40.6915 40.8434Z" fill="#878787"/>
<path d="M13.1915 34.6558H13.879V36.0308C13.879 36.7884 14.4957 37.4058 15.254 37.4058H17.3165C18.0748 37.4058 18.6915 36.7884 18.6915 36.0308V34.6558H25.5665V36.0308C25.5665 36.7884 26.1832 37.4058 26.9415 37.4058H29.004C29.7623 37.4058 30.379 36.7884 30.379 36.0308V34.6558H31.0665C31.8248 34.6558 32.4415 34.0384 32.4415 33.2808V31.9058C32.4406 31.0702 32.1359 30.2636 31.5841 29.6361C31.0324 29.0087 30.2712 28.6034 29.4427 28.4958L28.1268 25.8627C27.8995 25.405 27.5487 25.0201 27.1139 24.7515C26.6792 24.483 26.1779 24.3416 25.6669 24.3433H18.5912C18.0803 24.3417 17.5792 24.4832 17.1445 24.7517C16.7099 25.0202 16.3592 25.4051 16.132 25.8627L14.8154 28.4958C13.9867 28.6034 13.2255 29.0088 12.6737 29.6364C12.1219 30.264 11.8172 31.0708 11.8165 31.9065V33.2815C11.8165 34.0391 12.4332 34.6565 13.1915 34.6565V34.6558ZM15.254 36.0308V34.6558H17.3165L17.3179 36.0308H15.254ZM24.1915 33.2808H20.0665V32.5933H24.1915V33.2808ZM29.004 36.0308H26.9415V34.6558H29.004V36.0308ZM17.3619 26.478C17.4755 26.2492 17.6508 26.0568 17.868 25.9226C18.0853 25.7883 18.3358 25.7176 18.5912 25.7183H25.6669C25.9224 25.7174 26.173 25.7881 26.3904 25.9224C26.6078 26.0567 26.7832 26.2491 26.8968 26.478L27.8917 28.4683H16.3664L17.3619 26.478ZM13.1915 31.9058C13.1915 30.768 14.1169 29.8433 15.254 29.8433H29.004C30.1412 29.8433 31.0665 30.768 31.0665 31.9058V33.2808H25.5665V31.9058C25.5665 31.7234 25.4941 31.5486 25.3652 31.4196C25.2362 31.2907 25.0614 31.2183 24.879 31.2183H19.379C19.1967 31.2183 19.0218 31.2907 18.8929 31.4196C18.764 31.5486 18.6915 31.7234 18.6915 31.9058V33.2808H13.1915V31.9058Z" fill="#878787"/>
<path d="M17.3166 31.2183H15.2541C14.3514 31.2327 14.35 32.5781 15.2541 32.5933H17.3166C18.2199 32.5781 18.2206 31.2334 17.3166 31.2183ZM26.9416 32.5933H29.0041C29.9074 32.5781 29.9081 31.2334 29.0041 31.2183H26.9416C26.0389 31.2327 26.0375 32.5781 26.9416 32.5933Z" fill="#878787"/>
</svg>
