<svg width="44" height="43" viewBox="0 0 44 43" fill="none" xmlns="http://www.w3.org/2000/svg">
<path d="M42.6251 0.138672H1.37512C1.19279 0.138672 1.01792 0.211105 0.888986 0.340036C0.760055 0.468967 0.687622 0.643836 0.687622 0.826172V9.07617C0.687622 9.25851 0.760055 9.43338 0.888986 9.56231C1.01792 9.69124 1.19279 9.76367 1.37512 9.76367H13.3954L11.7454 13.6178C11.7077 13.7032 11.6881 13.7954 11.6876 13.8887V16.6387C11.6876 16.821 11.7601 16.9959 11.889 17.1248C12.0179 17.2537 12.1928 17.3262 12.3751 17.3262H31.6251C31.8075 17.3262 31.9823 17.2537 32.1113 17.1248C32.2402 16.9959 32.3126 16.821 32.3126 16.6387V13.8887C32.3128 13.7955 32.2939 13.7033 32.2569 13.6178L30.6049 9.76367H42.6251C42.8075 9.76367 42.9823 9.69124 43.1113 9.56231C43.2402 9.43338 43.3126 9.25851 43.3126 9.07617V0.826172C43.3126 0.643836 43.2402 0.468967 43.1113 0.340036C42.9823 0.211105 42.8075 0.138672 42.6251 0.138672ZM15.1251 8.38867V7.01367H28.8751V8.38867H15.1251ZM28.8751 5.63867H15.1251V1.51367H28.8751V5.63867ZM2.06262 1.51367H13.7501V8.38867H2.06262V1.51367ZM13.0626 15.9512V14.5762H30.9376V15.9512H13.0626ZM30.5829 13.2012H13.4174L14.8907 9.76367H29.1096L30.5829 13.2012ZM41.9376 8.38867H30.2501V1.51367H41.9376V8.38867ZM42.6251 25.5762H41.2501V19.7324C41.2501 19.0942 40.9966 18.4822 40.5453 18.0309C40.0941 17.5797 39.482 17.3262 38.8439 17.3262C38.2057 17.3262 37.5937 17.5797 37.1424 18.0309C36.6911 18.4822 36.4376 19.0942 36.4376 19.7324V21.4512H37.8126V19.7324C37.8126 19.4589 37.9213 19.1966 38.1147 19.0032C38.3081 18.8098 38.5704 18.7012 38.8439 18.7012C39.1174 18.7012 39.3797 18.8098 39.5731 19.0032C39.7665 19.1966 39.8751 19.4589 39.8751 19.7324V22.8262H38.5001V24.2012H39.8751V25.5762H26.1251V24.2012H27.5001V22.8262H26.1251V21.4512C26.1251 21.2688 26.0527 21.094 25.9238 20.965C25.7948 20.8361 25.62 20.7637 25.4376 20.7637H18.5626C18.3803 20.7637 18.2054 20.8361 18.0765 20.965C17.9476 21.094 17.8751 21.2688 17.8751 21.4512V22.8262H16.5001V24.2012H17.8751V25.5762H11.4002C11.9239 25.0953 12.3421 24.5109 12.6282 23.86C12.9144 23.2091 13.0623 22.5059 13.0626 21.7949V21.4512C13.0626 21.2688 12.9902 21.094 12.8613 20.965C12.7323 20.8361 12.5575 20.7637 12.3751 20.7637H3.43762C3.25529 20.7637 3.08042 20.8361 2.95149 20.965C2.82256 21.094 2.75012 21.2688 2.75012 21.4512V21.7949C2.75045 22.5059 2.89837 23.2091 3.18452 23.86C3.47067 24.5109 3.88882 25.0953 4.4125 25.5762H1.37512C1.19279 25.5762 1.01792 25.6486 0.888986 25.7775C0.760055 25.9065 0.687622 26.0813 0.687622 26.2637V29.7012C0.687622 29.8835 0.760055 30.0584 0.888986 30.1873C1.01792 30.3162 1.19279 30.3887 1.37512 30.3887H2.06262V42.0762C2.06262 42.2585 2.13505 42.4334 2.26399 42.5623C2.39292 42.6912 2.56779 42.7637 2.75012 42.7637H41.2501C41.4325 42.7637 41.6073 42.6912 41.7363 42.5623C41.8652 42.4334 41.9376 42.2585 41.9376 42.0762V30.3887H42.6251C42.8075 30.3887 42.9823 30.3162 43.1113 30.1873C43.2402 30.0584 43.3126 29.8835 43.3126 29.7012V26.2637C43.3126 26.0813 43.2402 25.9065 43.1113 25.7775C42.9823 25.6486 42.8075 25.5762 42.6251 25.5762ZM19.2501 22.1387H24.7501V25.5762H19.2501V22.1387ZM4.14025 22.1387H11.6725C11.5881 23.0793 11.1548 23.9542 10.4579 24.5915C9.76091 25.2287 8.85073 25.5821 7.90637 25.5821C6.96201 25.5821 6.05183 25.2287 5.35487 24.5915C4.65791 23.9542 4.22463 23.0793 4.14025 22.1387V22.1387ZM3.43762 30.3887H12.3751V41.3887H3.43762V30.3887ZM13.7501 36.5762H30.2501V41.3887H13.7501V36.5762ZM30.2501 35.2012H13.7501V30.3887H30.2501V35.2012ZM40.5626 41.3887H31.6251V30.3887H40.5626V41.3887ZM41.9376 29.0137H2.06262V26.9512H41.9376V29.0137Z" fill="#878787"/>
</svg>
