<svg width="24" height="31" viewBox="0 0 24 31" fill="none" xmlns="http://www.w3.org/2000/svg">
<path d="M12.0223 19.7195C10.6809 19.7195 9.54071 19.25 8.60173 18.311C7.66275 17.372 7.19326 16.2319 7.19326 14.8905V5.23236C7.19326 3.89096 7.66275 2.75077 8.60173 1.81179C9.54071 0.872811 10.6809 0.40332 12.0223 0.40332C13.3637 0.40332 14.5039 0.872811 15.4429 1.81179C16.3819 2.75077 16.8513 3.89096 16.8513 5.23236V14.8905C16.8513 16.2319 16.3819 17.372 15.4429 18.311C14.5039 19.25 13.3637 19.7195 12.0223 19.7195ZM10.4126 30.9873V26.0375C7.62251 25.6619 5.3153 24.4144 3.49099 22.295C1.66668 20.1756 0.754532 17.7074 0.754532 14.8905H3.97389C3.97389 17.1172 4.75888 19.015 6.32886 20.5839C7.89776 22.1539 9.79558 22.9389 12.0223 22.9389C14.249 22.9389 16.1474 22.1539 17.7174 20.5839C19.2863 19.015 20.0707 17.1172 20.0707 14.8905H23.2901C23.2901 17.7074 22.3779 20.1756 20.5536 22.295C18.7293 24.4144 16.4221 25.6619 13.632 26.0375V30.9873H10.4126Z" fill="white"/>
</svg>
