<svg width="37" height="38" viewBox="0 0 37 38" fill="none" xmlns="http://www.w3.org/2000/svg">
<path d="M4 38C2.9 38 1.958 37.6087 1.174 36.826C0.391333 36.042 0 35.1 0 34V26C0 24.9 0.391333 23.958 1.174 23.174C1.958 22.3913 2.9 22 4 22H24V16C24 15.4333 24.192 14.958 24.576 14.574C24.9587 14.1913 25.4333 14 26 14C26.5667 14 27.0413 14.1913 27.424 14.574C27.808 14.958 28 15.4333 28 16V22H32C33.1 22 34.042 22.3913 34.826 23.174C35.6087 23.958 36 24.9 36 26V34C36 35.1 35.6087 36.042 34.826 36.826C34.042 37.6087 33.1 38 32 38H4ZM10 30C10 29.4333 9.80867 28.9587 9.426 28.576C9.042 28.192 8.56667 28 8 28C7.43333 28 6.958 28.192 6.574 28.576C6.19133 28.9587 6 29.4333 6 30C6 30.5667 6.19133 31.0413 6.574 31.424C6.958 31.808 7.43333 32 8 32C8.56667 32 9.042 31.808 9.426 31.424C9.80867 31.0413 10 30.5667 10 30ZM17 30C17 29.4333 16.8087 28.9587 16.426 28.576C16.042 28.192 15.5667 28 15 28C14.4333 28 13.9587 28.192 13.576 28.576C13.192 28.9587 13 29.4333 13 30C13 30.5667 13.192 31.0413 13.576 31.424C13.9587 31.808 14.4333 32 15 32C15.5667 32 16.042 31.808 16.426 31.424C16.8087 31.0413 17 30.5667 17 30ZM22 32C22.5667 32 23.042 31.808 23.426 31.424C23.8087 31.0413 24 30.5667 24 30C24 29.4333 23.8087 28.9587 23.426 28.576C23.042 28.192 22.5667 28 22 28C21.4333 28 20.9587 28.192 20.576 28.576C20.192 28.9587 20 29.4333 20 30C20 30.5667 20.192 31.0413 20.576 31.424C20.9587 31.808 21.4333 32 22 32ZM21.05 11.05C20.65 10.65 20.4587 10.1667 20.476 9.6C20.492 9.03333 20.7333 8.61667 21.2 8.35C21.9 7.91667 22.6587 7.58333 23.476 7.35C24.292 7.11667 25.1333 7 26 7C26.8667 7 27.7087 7.11667 28.526 7.35C29.342 7.58333 30.1 7.91667 30.8 8.35C31.2667 8.61667 31.5167 9.02467 31.55 9.574C31.5833 10.1247 31.3833 10.6167 30.95 11.05C30.5833 11.4167 30.1167 11.6253 29.55 11.676C28.9833 11.7253 28.4 11.6167 27.8 11.35C27.5333 11.2167 27.25 11.1247 26.95 11.074C26.65 11.0247 26.3333 11 26 11C25.6667 11 25.35 11.0247 25.05 11.074C24.75 11.1247 24.4667 11.2167 24.2 11.35C23.6 11.6167 23.0167 11.7253 22.45 11.676C21.8833 11.6253 21.4167 11.4167 21.05 11.05ZM16.1 6.1C15.7 5.7 15.5 5.23333 15.5 4.7C15.5 4.16667 15.7167 3.73333 16.15 3.4C17.5167 2.33333 19.0333 1.5 20.7 0.9C22.3667 0.3 24.1333 0 26 0C27.8667 0 29.6333 0.3 31.3 0.9C32.9667 1.5 34.4833 2.33333 35.85 3.4C36.2833 3.73333 36.5 4.16667 36.5 4.7C36.5 5.23333 36.3 5.7 35.9 6.1C35.5333 6.46667 35.0753 6.66667 34.526 6.7C33.9753 6.73333 33.4667 6.58333 33 6.25C32 5.55 30.9087 5 29.726 4.6C28.542 4.2 27.3 4 26 4C24.7 4 23.458 4.2 22.274 4.6C21.0913 5 20 5.55 19 6.25C18.5333 6.58333 18.0253 6.73333 17.476 6.7C16.9253 6.66667 16.4667 6.46667 16.1 6.1Z" fill="#878787"/>
</svg>
