<svg width="21" height="20" viewBox="0 0 21 20" fill="none" xmlns="http://www.w3.org/2000/svg">
<path d="M12.375 20H8.625C8.375 20 8.15834 19.9167 7.975 19.75C7.79167 19.5833 7.68333 19.375 7.65 19.125L7.35 16.8C7.13334 16.7167 6.92933 16.6167 6.738 16.5C6.546 16.3833 6.35834 16.2583 6.175 16.125L4 17.025C3.76667 17.1083 3.53334 17.1167 3.3 17.05C3.06667 16.9833 2.88333 16.8417 2.75 16.625L0.900002 13.4C0.766668 13.1833 0.725002 12.95 0.775002 12.7C0.825002 12.45 0.950002 12.25 1.15 12.1L3.025 10.675C3.00834 10.5583 3 10.4457 3 10.337V9.662C3 9.554 3.00834 9.44167 3.025 9.325L1.15 7.9C0.950002 7.75 0.825002 7.55 0.775002 7.3C0.725002 7.05 0.766668 6.81667 0.900002 6.6L2.75 3.375C2.86667 3.14167 3.04567 2.99567 3.287 2.937C3.529 2.879 3.76667 2.89167 4 2.975L6.175 3.875C6.35834 3.74167 6.55 3.61667 6.75 3.5C6.95 3.38333 7.15 3.28333 7.35 3.2L7.65 0.875C7.68333 0.625 7.79167 0.416667 7.975 0.25C8.15834 0.0833333 8.375 0 8.625 0H12.375C12.625 0 12.8417 0.0833333 13.025 0.25C13.2083 0.416667 13.3167 0.625 13.35 0.875L13.65 3.2C13.8667 3.28333 14.071 3.38333 14.263 3.5C14.4543 3.61667 14.6417 3.74167 14.825 3.875L17 2.975C17.2333 2.89167 17.4667 2.88333 17.7 2.95C17.9333 3.01667 18.1167 3.15833 18.25 3.375L20.1 6.6C20.2333 6.81667 20.275 7.05 20.225 7.3C20.175 7.55 20.05 7.75 19.85 7.9L17.975 9.325C17.9917 9.44167 18 9.554 18 9.662V10.337C18 10.4457 17.9833 10.5583 17.95 10.675L19.825 12.1C20.025 12.25 20.15 12.45 20.2 12.7C20.25 12.95 20.2083 13.1833 20.075 13.4L18.225 16.6C18.0917 16.8167 17.9043 16.9627 17.663 17.038C17.421 17.1127 17.1833 17.1083 16.95 17.025L14.825 16.125C14.6417 16.2583 14.45 16.3833 14.25 16.5C14.05 16.6167 13.85 16.7167 13.65 16.8L13.35 19.125C13.3167 19.375 13.2083 19.5833 13.025 19.75C12.8417 19.9167 12.625 20 12.375 20ZM10.55 13.5C11.5167 13.5 12.3417 13.1583 13.025 12.475C13.7083 11.7917 14.05 10.9667 14.05 10C14.05 9.03333 13.7083 8.20833 13.025 7.525C12.3417 6.84167 11.5167 6.5 10.55 6.5C9.56667 6.5 8.73734 6.84167 8.062 7.525C7.38733 8.20833 7.05 9.03333 7.05 10C7.05 10.9667 7.38733 11.7917 8.062 12.475C8.73734 13.1583 9.56667 13.5 10.55 13.5Z" fill="#8A8A8A"/>
</svg>
