<svg width="307" height="307" viewBox="0 0 307 307" fill="none" xmlns="http://www.w3.org/2000/svg">
<circle cx="153.25" cy="153.5" r="153.25" fill="#247AD1" fill-opacity="0.05"/>
<g clip-path="url(#clip0_24_439)">
<path d="M94.6946 85.4812C95.2437 85.4685 95.8183 85.3918 96.3928 85.2642C97.5037 85.0216 99.036 84.1022 99.7766 83.2212C99.8532 83.1318 99.9298 83.0296 100.006 82.9403C104.539 77.156 99.7 69.2905 92.409 70.8355C91.4514 71.0398 90.2256 71.7038 89.3828 72.4444C89.1913 72.6231 89.0125 72.7891 88.8721 72.9679C88.2081 73.7723 87.7229 74.6023 87.4037 75.4706C85.6161 80.3482 89.2041 85.6345 94.6946 85.4812Z" fill="white"/>
<path d="M257.253 242.97L259.488 242.983C259.475 242.983 259.462 242.983 259.449 242.97H257.253Z" fill="white"/>
<path d="M28.1952 242.97L44.7945 242.983C44.7945 242.983 44.7945 242.983 44.7945 242.97H28.1952Z" fill="white"/>
<path d="M193.946 242.97H124.829H55.6097C55.6097 242.97 55.6097 242.97 55.6097 242.983H244.089C244.089 242.983 244.089 242.983 244.089 242.97H193.946Z" fill="white"/>
<path d="M249.962 242.97C249.949 242.97 249.949 242.97 249.962 242.97L251.392 242.983C251.392 242.983 251.392 242.983 251.392 242.97H249.962Z" fill="white"/>
<path d="M229.788 156.539C229.788 156.577 229.8 156.616 229.8 156.654L229.813 156.641L229.788 156.539Z" fill="#EBF3FA"/>
<path d="M249.962 242.97H251.392C251.367 242.919 251.354 242.855 251.354 242.779C251.252 242.753 251.15 242.741 251.047 242.728C250.396 242.651 250.064 242.868 249.962 242.97Z" fill="#EBF3FA"/>
<path d="M258.338 242.728C257.7 242.638 257.368 242.868 257.266 242.97H259.462C259.066 242.894 258.747 242.779 258.338 242.728Z" fill="#EBF3FA"/>
<path d="M258.045 238.042C258.058 238.042 258.07 238.042 258.083 238.042C257.764 235.986 257.355 233.202 257.023 230.189C256.959 229.614 256.896 229.053 256.832 228.478C256.742 228.899 256.64 229.308 256.538 229.716C255.657 233.228 254.533 236.292 253.691 238.374C253.716 238.386 253.869 238.54 253.997 238.795C254.099 239.012 254.189 239.319 254.125 239.689C254.086 239.957 254.125 240.327 254.214 240.723C254.482 240.57 254.763 240.378 255.031 240.136C255.644 239.561 258.045 238.042 258.045 238.042Z" fill="#EBF3FA"/>
<path d="M209.473 121.617C210.571 122.025 211.758 122.357 213.022 122.562C215.436 122.97 219.202 122.396 221.36 121.259C221.59 121.144 221.82 121.017 222.05 120.889C235.725 113.1 232.507 93.6149 216.802 90.7548C214.746 90.3845 211.784 90.7165 209.511 91.4953C208.987 91.6869 208.502 91.8912 208.081 92.1082C206.114 93.1553 204.48 94.4194 203.165 95.8622C202.629 96.4496 202.156 97.0497 201.722 97.6754C202.399 98.9267 202.782 100.357 202.782 101.876V116.956C204.493 118.961 206.727 120.57 209.473 121.617Z" fill="#EBF3FA"/>
<path d="M24.8373 184.847C24.8373 184.847 23.4455 185.371 23.42 184.298C23.4072 183.8 23.6115 183.532 23.8158 183.238H23.7903L23.1518 183.149C23.1135 183.149 23.0625 183.149 23.0242 183.149C22.8454 183.175 22.6922 183.328 22.6666 183.507L22.4751 184.86L27.6592 185.601L27.8507 184.247C27.889 184.017 27.723 183.8 27.4804 183.762L26.7271 183.66C26.4206 184.017 25.846 184.375 24.8373 184.847Z" fill="#EBF3FA"/>
<path d="M115.98 213.411V213.373C115.929 213.27 115.865 213.13 115.75 212.964C115.827 213.104 115.904 213.258 115.98 213.411Z" fill="#EBF3FA"/>
<path d="M34.1072 180.225C34.12 179.753 34.1711 179.063 34.2221 178.182C34.4137 175.309 34.7584 170.482 34.4903 164.864C33.4305 166.179 32.6771 167.163 32.5494 167.418C32.077 168.439 28.4379 179.689 28.4379 179.689C28.4379 179.689 27.9144 179.727 27.2121 179.701C27.11 179.893 27.0333 180.072 27.0206 180.199C27.0206 180.276 27.0078 180.365 27.0078 180.442C27.1866 180.672 27.3653 180.927 27.3909 181.08C27.5441 182.102 27.8761 182.549 27.7101 182.651C27.5186 182.779 27.2887 182.613 27.0844 182.319C27.0972 182.574 27.0972 182.792 27.0589 182.996L27.5696 183.072C27.8761 183.111 28.1442 183.277 28.323 183.519C28.5017 183.762 28.5911 184.068 28.5401 184.375L28.3485 185.728L31.2342 186.137C31.3492 186.15 31.4641 186.175 31.5662 186.201L33.1496 186.431C33.4815 186.482 33.788 186.571 34.0817 186.699C34.2349 184.758 34.4647 182.511 34.6307 180.927C34.3498 180.71 34.0944 180.455 34.1072 180.225Z" fill="#EBF3FA"/>
<path d="M44.5647 239.267C44.4115 239.242 44.2455 239.216 44.0795 239.178C44.0795 239.178 40.9512 228.644 40.0574 217.497C40.0446 217.318 40.0318 217.127 40.0191 216.948C39.8786 214.994 39.7126 212.658 39.5594 210.142C37.7207 214.1 35.882 217.816 34.2604 220.74C27.6207 232.641 25.5394 235.96 25.5394 235.96C25.5394 235.96 25.45 235.922 25.2968 235.858C25.3351 236.548 25.3478 237.339 25.3095 238.029C25.2201 239.689 25.7692 241.476 27.2504 241.796C28.3102 242.026 28.2974 242.638 28.208 242.97H44.7946C44.2966 242.294 44.4881 240.021 44.5647 239.267Z" fill="#EBF3FA"/>
<path d="M210.086 145.443C210.839 145.571 211.592 145.162 211.912 144.485C211.937 144.409 211.975 144.332 212.001 144.256L214.031 137.246C214.223 136.594 214.772 136.109 215.436 136.033C215.5 136.02 215.551 136.02 215.614 136.02C215.793 136.02 215.959 136.02 216.138 135.994C218.232 135.905 220.326 135.586 222.356 135.049C223.033 134.858 223.761 135.139 224.157 135.739L227.604 140.859C228.089 141.587 229.06 141.83 229.826 141.421L231.256 140.68L236.223 138.076C237.002 137.667 237.334 136.735 237.002 135.918L234.499 129.967C234.231 129.329 234.397 128.601 234.895 128.129C236.21 126.89 237.449 125.498 238.56 123.979C239.39 122.855 240.118 121.668 240.769 120.467L242.161 120.595L247.868 121.093C248.57 121.157 249.234 120.761 249.515 120.135C249.579 120.008 249.618 119.867 249.643 119.714L250.92 112.551C251.06 111.695 250.537 110.878 249.72 110.636L245.404 109.397C244.676 109.193 244.165 108.49 244.191 107.737C244.306 104.596 243.91 101.455 243.042 98.4542C242.837 97.7392 243.105 96.9986 243.706 96.6028L249.835 92.4785C250.511 92.0188 250.754 91.1122 250.358 90.3716L246.949 83.8851C246.553 83.119 245.621 82.787 244.842 83.119L237.449 86.2218C236.811 86.49 236.083 86.3495 235.597 85.8515C234.55 84.7917 233.401 83.8213 232.15 82.9147C231.486 82.4295 230.796 81.9698 230.107 81.5485C229.558 81.2165 229.251 80.6036 229.303 79.9651L229.979 72.3167C230.056 71.4357 229.456 70.6312 228.575 70.478L221.603 69.2522L221.437 69.2267C220.581 69.0862 219.764 69.597 219.534 70.4142L217.887 76.0835C217.862 76.1728 217.823 76.2622 217.785 76.3516C217.491 76.939 216.879 77.322 216.215 77.2837C212.295 77.105 208.387 77.7051 204.697 79.0586C204.544 79.1096 204.391 79.1479 204.238 79.1607C203.65 79.199 203.063 78.9181 202.731 78.4201L199.986 74.3214C199.615 73.7851 198.977 73.517 198.364 73.5936C198.172 73.6191 197.981 73.6829 197.802 73.7723L191.405 77.1305C190.613 77.5391 190.269 78.4967 190.626 79.3267L193.167 85.3663C193.41 85.9664 193.295 86.6432 192.861 87.1284C192.248 87.8307 191.66 88.5457 191.099 89.3118C190.218 90.5249 189.439 91.7762 188.775 93.0658H193.959C197.317 93.0658 200.241 94.9428 201.748 97.7136C202.182 97.088 202.654 96.4751 203.191 95.9005C204.506 94.4576 206.153 93.1808 208.106 92.1465C208.515 91.9167 209.013 91.7124 209.537 91.5336C211.797 90.7547 214.772 90.4227 216.828 90.793C232.533 93.6404 235.751 113.138 222.075 120.927C221.846 121.055 221.629 121.183 221.386 121.297C219.215 122.434 215.448 123.008 213.048 122.6C211.784 122.383 210.596 122.064 209.498 121.655C206.753 120.621 204.506 118.999 202.82 117.033V144.204C202.871 144.217 202.91 144.23 202.961 144.23L210.086 145.443Z" fill="#CDE3FD"/>
<path d="M115.75 212.951C115.865 213.117 115.929 213.258 115.98 213.36V210.295C114.435 209.414 113.605 208.725 113.605 208.725C113.605 208.725 115.776 194.845 104.91 193.594C104.91 193.594 97.5804 193.658 93.3923 196.62C93.3923 196.62 105.944 203.145 104.578 205.405C103.211 207.665 91.1194 197.131 91.1194 197.131C91.1194 197.131 78.2613 203.451 75.5161 207.742C75.5161 207.742 91.1322 209.81 89.268 211.674C87.391 213.526 71.047 212.134 71.047 212.134C71.047 212.134 60.947 221.034 65.7991 227.559C70.664 234.071 75.8736 233.79 77.4697 232.551C79.0658 231.313 86.7142 221.302 87.7868 222.566C88.8594 223.83 85.68 232.13 81.594 234.952C81.594 234.952 94.9883 238.808 98.704 232.998C102.432 227.188 100.39 222.898 102.764 219.348C105.139 215.799 107.949 214.062 107.54 216.437C107.131 218.812 102.088 223.996 102.254 228.503C102.432 233.011 102.126 236.305 107.093 232.091C110.438 229.257 114.448 224.009 115.955 219.412V213.411C115.903 213.258 115.827 213.104 115.75 212.951Z" fill="#ABC8F7"/>
<path d="M100.964 152.542C100.964 152.542 108.383 165.145 105.957 164.839C103.531 164.532 95.2056 151.776 95.2056 151.776C95.2056 151.776 82.9221 149.491 80.943 156.769C78.9638 164.047 82.1432 167.699 83.9564 168.146C85.7823 168.605 97.4529 168.465 97.1465 169.985C96.84 171.504 88.949 173.917 84.5565 172.551C84.5565 172.551 89.3959 184.541 95.7674 183.941C102.139 183.341 104.118 179.395 108.064 179.101C112.009 178.808 114.895 179.867 112.916 180.927C110.937 181.987 104.271 181.259 101.079 183.966C97.8871 186.673 95.3078 188.333 101.22 189.559C105.344 190.414 111.754 190.3 115.98 188.627V157.101C112.533 155.543 104.591 152.198 100.964 152.542Z" fill="#D5E5FB"/>
<path d="M202.795 206.031V216.667C202.999 216.131 203.203 215.556 203.433 214.956C204.404 212.338 203.471 208.801 202.795 206.031Z" fill="#7CA8F4"/>
<path d="M205.706 206.541C206.779 210.449 203.663 213.717 205.297 220.063C206.919 226.409 220.147 226.92 220.147 226.92C217.3 223.153 216.904 214.713 218.258 213.896C219.611 213.079 223.518 224.379 224.591 225.975C225.663 227.571 230.273 229.372 236.606 224.954C242.939 220.536 236.479 209.478 236.479 209.478C236.479 209.478 221.309 205.865 220.173 203.63C219.036 201.396 233.746 204.192 233.746 204.192C232.546 199.506 222.842 189.968 222.842 189.968C222.842 189.968 208.783 195.854 208.234 193.415C207.685 190.976 220.952 188.831 220.952 188.831C218.053 184.924 211.465 182.677 211.465 182.677C207.455 181.847 204.684 183.392 202.795 185.562V201.625C203.561 201.523 204.902 203.604 205.706 206.541Z" fill="#7CA8F4"/>
<path d="M70.83 156.475C71.0471 156.284 71.3663 156.041 71.826 155.824L71.2259 155.403L69.7575 154.368C69.6425 154.292 69.617 154.126 69.6936 154.011L70.6385 152.67C70.6002 152.696 70.5619 152.708 70.5236 152.721C70.5236 152.721 70.5236 152.721 70.5108 152.721C70.4725 152.747 70.2427 152.836 70.0767 152.568C69.8851 152.287 70.5619 150.742 70.1022 150.653C69.9107 150.614 69.6042 151.738 69.2978 152.198C68.9786 152.657 68.953 153.398 69.1318 153.883C69.3105 154.368 69.0169 154.751 69.0169 154.751C69.0041 154.777 69.0041 154.79 68.9913 154.815C69.4382 155.032 70.2937 155.518 70.83 156.475Z" fill="#FFB27D"/>
<path d="M69.7702 154.356L71.2386 155.39C71.1493 155.326 71.1365 155.211 71.1876 155.122L75.3757 149.159C75.4395 149.069 75.5545 149.057 75.6438 149.108L75.7843 149.197L74.1754 148.073C74.0605 147.997 73.9073 148.022 73.8179 148.137L70.6385 152.657L69.6936 153.998C69.6298 154.126 69.6553 154.279 69.7702 154.356Z" fill="#2B478B"/>
<path d="M75.3758 149.172L71.1877 155.135C71.1238 155.224 71.1494 155.339 71.2388 155.403L71.8389 155.824L72.1836 156.067C72.273 156.13 72.3879 156.105 72.4518 156.016L76.6399 150.053C76.7038 149.963 76.6782 149.848 76.5888 149.784L75.7844 149.223L75.644 149.133C75.5546 149.057 75.4397 149.082 75.3758 149.172Z" fill="#233862"/>
<path d="M54.0264 169.55C55.3543 170.431 56.6695 170.942 57.8953 170.827C64.4074 170.253 71.0088 156.794 71.0088 156.794C70.9577 156.68 70.9066 156.565 70.8428 156.462C70.3065 155.505 69.4382 155.02 69.0041 154.828C68.8381 154.751 68.7359 154.726 68.7359 154.726L57.857 162.834C56.7844 161.889 55.0351 159.425 53.2347 156.667C53.5412 159.208 53.7455 162.323 53.8859 165.503C53.937 166.856 53.9881 168.222 54.0264 169.55Z" fill="#233862"/>
<path d="M28.1825 243.009C28.1825 242.996 28.1825 242.996 28.1953 242.983C28.1953 242.983 28.1953 242.983 28.1953 242.97C28.2846 242.638 28.2974 242.026 27.2376 241.796C25.7564 241.476 25.2074 239.689 25.2968 238.029C25.3351 237.327 25.3223 236.535 25.284 235.858C24.5689 235.565 22.5132 234.645 21.696 233.841L21.3768 234.249C21.3768 234.249 19.487 235.999 19.8573 237.25C20.2276 238.501 21.9386 239.331 22.1684 240.851C22.3344 241.923 22.8324 242.638 23.407 242.983C23.407 242.983 23.4198 242.983 23.4198 242.996C23.4325 243.009 23.4453 243.021 23.4708 243.021H28.1825V243.009Z" fill="#233862"/>
<path d="M54.0007 241.885C52.3408 241.617 49.4806 240.659 48.8422 238.54C48.1399 238.974 46.7226 239.599 44.5647 239.267C44.4881 240.021 44.2965 242.294 44.7945 242.97C44.7945 242.97 44.7945 242.97 44.7945 242.983C44.8073 242.996 44.8073 243.009 44.82 243.009H55.6351C55.6351 242.996 55.6224 242.996 55.6224 242.983C55.6224 242.983 55.6224 242.983 55.6224 242.97C55.4436 242.587 55.0478 242.051 54.0007 241.885Z" fill="#233862"/>
<path d="M44.0795 239.178C44.2455 239.216 44.3987 239.242 44.5647 239.267C46.7226 239.599 48.1527 238.974 48.8422 238.54C49.1742 238.335 49.3402 238.169 49.3402 238.169C49.3402 238.169 50.0808 230.789 50.2596 226.18C50.3617 223.524 51.447 209.491 52.3409 198.076L40.0574 217.497C40.9512 228.644 44.0795 239.178 44.0795 239.178Z" fill="#FFA25C"/>
<path d="M39.5596 210.129C39.7256 212.645 39.8788 214.981 40.0192 216.935C40.032 217.114 40.0448 217.305 40.0576 217.484L52.341 198.05C52.8773 191.27 53.337 185.396 53.503 183.392C52.9412 183.392 52.0474 183.494 50.9493 183.609C50.3619 185.09 44.9224 198.612 39.5596 210.129Z" fill="#EF8C48"/>
<path d="M34.2478 220.727C35.8694 217.816 37.7081 214.088 39.5468 210.129C44.9097 198.612 50.3491 185.077 50.9365 183.621C48.9829 183.826 46.4164 184.068 44.1052 183.826C41.0152 183.532 38.2955 182.613 35.3587 181.298C35.1799 181.221 34.899 181.081 34.6436 180.902C34.4776 182.472 34.2478 184.72 34.0946 186.673C35.4736 187.286 36.3291 188.767 36.112 190.325L35.2182 196.62C34.9501 198.51 33.188 199.838 31.2982 199.57L31.0812 199.544C30.2129 201.727 29.2552 203.681 28.3614 204.805C23.9179 210.41 21.377 233.381 21.377 233.381C21.428 233.522 21.5429 233.675 21.6962 233.828C22.5134 234.632 24.5819 235.539 25.2842 235.845C25.4374 235.909 25.5268 235.948 25.5268 235.948C25.5268 235.948 27.6081 232.628 34.2478 220.727Z" fill="#FFA25C"/>
<path d="M37.708 144.459C37.7198 144.459 37.7198 144.447 37.7317 144.447C37.7198 144.447 37.708 144.459 37.708 144.459Z" fill="#FFB27D"/>
<path d="M42.7005 144.319C44.0285 144.971 45.3437 145.086 46.6078 144.894C46.3651 144.728 46.097 144.562 45.8033 144.396C45.8927 143.847 45.9693 143.336 46.0332 142.877C43.7348 142.481 41.13 138.778 41.13 138.765C41.0661 138.701 41.0151 138.637 40.964 138.561C40.6065 140.527 39.802 141.983 39.0742 142.953C39.0998 142.928 39.1253 142.915 39.1508 142.889C39.4445 142.711 41.1427 143.541 42.7005 144.319Z" fill="#FFB27D"/>
<path d="M41.1428 138.778C41.1428 138.791 43.7476 142.494 46.046 142.889C46.2503 141.306 46.2758 140.348 46.2758 140.195C44.8202 140.272 42.4069 140.144 41.1428 138.778Z" fill="#ED975D"/>
<path d="M46.2758 140.195C46.9908 140.157 47.4888 140.08 47.4888 140.08C48.8551 139.761 48.9189 135.1 48.6125 132.674C47.8081 132.662 46.8887 132.24 45.2032 132.317C42.9687 132.419 42.9687 133.9 42.6623 134.245C42.3558 134.59 42.3175 133.99 41.5642 133.772C40.8108 133.543 40.8108 134.756 40.9257 135.675C41.0279 136.594 40.3639 136.709 40.3639 136.709C40.3384 136.684 40.3128 136.658 40.3 136.633C40.3256 136.786 40.3511 136.939 40.3767 137.092C40.466 137.692 40.6831 138.178 41.0023 138.573C41.0534 138.637 41.1172 138.714 41.1683 138.778C42.4069 140.144 44.8202 140.272 46.2758 140.195Z" fill="#FFB27D"/>
<path d="M39.0486 143.451L43.3516 154.228C43.3516 154.228 42.1003 155.696 40.4404 157.663C40.7468 162.719 40.5936 173.534 34.2092 178.169C34.1454 179.038 34.1071 179.727 34.0943 180.212C34.0816 180.455 34.3369 180.697 34.6434 180.902C34.8988 181.081 35.1797 181.221 35.3584 181.298C38.2952 182.613 41.015 183.519 44.105 183.826C46.4161 184.068 48.9826 183.826 50.9362 183.621C52.0344 183.507 52.9282 183.404 53.49 183.404C53.5155 183.404 53.5411 183.404 53.5666 183.404C53.7198 183.404 53.8603 183.341 53.9752 183.251C54.0774 183.175 54.154 178.706 54.0773 173.075C54.0773 172.857 54.0773 172.615 54.0646 172.398V172.321C54.0518 171.415 54.039 170.495 54.0135 169.563C53.9752 168.222 53.9241 166.869 53.873 165.515C53.7326 162.336 53.5283 159.221 53.2218 156.68C53.0431 155.173 52.826 153.87 52.5834 152.862C51.7917 149.682 49.9786 147.588 48.3187 146.043L46.9524 144.843C46.8375 144.868 46.7226 144.881 46.6077 144.907C45.3436 145.098 44.0284 144.983 42.7004 144.332C41.1426 143.566 39.4444 142.736 39.1635 142.928C39.138 142.953 39.1124 142.966 39.0869 142.991C38.6017 143.375 38.142 143.86 37.7206 144.447C37.7206 144.46 37.7079 144.46 37.7079 144.473C36.8651 145.686 36.1756 147.295 35.6393 149.184C37.5802 145.916 39.0486 143.451 39.0486 143.451Z" fill="#2B478B"/>
<path d="M34.2222 178.182C40.6065 173.547 40.7597 162.732 40.4533 157.675C38.5635 159.923 36.1502 162.808 34.4903 164.864C34.7585 170.482 34.4265 175.309 34.2222 178.182Z" fill="#233862"/>
<path d="M35.2308 196.633L36.1247 190.338C36.3417 188.78 35.4862 187.299 34.1072 186.686C33.8135 186.558 33.5071 186.469 33.1751 186.418L31.5918 186.188C32.7026 186.456 33.5837 187.273 33.9923 188.295C34.2094 188.844 34.2987 189.444 34.2093 190.07L33.3028 196.428C33.124 197.654 32.3196 198.65 31.247 199.123C30.8895 199.276 30.5064 199.378 30.1106 199.404L31.081 199.544L31.2981 199.57C33.2006 199.838 34.9627 198.51 35.2308 196.633Z" fill="#233862"/>
<path d="M30.1235 199.404C30.5193 199.378 30.9024 199.276 31.2599 199.123C32.3197 198.65 33.1369 197.654 33.3157 196.428L34.2222 190.07C34.3116 189.444 34.2222 188.844 34.0052 188.295C33.5966 187.273 32.7155 186.469 31.6047 186.188C31.4897 186.162 31.3876 186.137 31.2727 186.124L28.3869 185.716L28.5785 184.362C28.6168 184.056 28.5402 183.762 28.3614 183.507C28.1826 183.264 27.9017 183.098 27.6081 183.06L27.0973 182.983C27.0462 183.226 26.9569 183.443 26.7526 183.66L27.5059 183.762C27.7357 183.8 27.9017 184.017 27.8762 184.247L27.6847 185.601L22.5006 184.86L22.6921 183.507C22.7176 183.315 22.8709 183.175 23.0496 183.149C23.0879 183.136 23.139 183.136 23.1773 183.149L23.8158 183.238H23.8413C23.969 183.047 24.1094 182.843 24.186 182.562L23.8158 182.511L23.2667 182.434C22.641 182.345 22.0537 182.779 21.9643 183.404L21.7728 184.758L16.7802 184.043C14.8777 183.775 13.1156 185.103 12.8347 187.005L11.9281 193.377C11.66 195.279 12.9879 197.041 14.8904 197.322L29.3829 199.391C29.6255 199.416 29.8809 199.429 30.1235 199.404Z" fill="#2B478B"/>
<path d="M23.4199 184.298C23.4454 185.371 24.8372 184.847 24.8372 184.847C25.8459 184.375 26.4205 184.005 26.7397 183.647C26.9313 183.43 27.0334 183.213 27.0845 182.97C27.1228 182.766 27.1228 182.549 27.11 182.294C26.944 182.051 26.7908 181.732 26.6887 181.425C26.4588 180.749 26.6376 179.97 26.6376 179.97C26.6376 179.97 26.8419 180.174 27.0334 180.417C27.0334 180.34 27.0462 180.263 27.0462 180.174C27.059 180.046 27.1356 179.867 27.2377 179.676C26.8291 179.663 26.3567 179.612 25.897 179.523C25.5267 179.446 25.1947 179.331 24.9138 179.204C24.02 179.931 24.02 180.072 24.2115 181.668C24.2498 182.025 24.2243 182.306 24.1732 182.536C24.0966 182.817 23.9562 183.021 23.8285 183.213C23.6114 183.532 23.4071 183.8 23.4199 184.298Z" fill="#FFB27D"/>
<path d="M27.225 179.701C27.9145 179.727 28.4508 179.689 28.4508 179.689C28.4508 179.689 32.0899 168.452 32.5623 167.418C32.6772 167.163 33.4434 166.179 34.5032 164.864C36.1631 162.808 38.5764 159.923 40.4661 157.675C42.1261 155.709 43.3774 154.241 43.3774 154.241L39.0744 143.464C39.0744 143.464 37.606 145.928 35.6651 149.184C32.2686 154.905 27.4676 163.102 26.7526 164.775C24.8756 169.116 24.2244 178.846 24.2244 178.846C24.2244 178.846 24.4925 179.05 24.9266 179.242C25.1948 179.369 25.5395 179.484 25.9098 179.561C26.344 179.638 26.8164 179.676 27.225 179.701Z" fill="#2B478B"/>
<path d="M40.913 135.662C40.8109 134.743 40.8109 133.53 41.5515 133.76C42.3048 133.99 42.3431 134.59 42.6496 134.232C42.956 133.887 42.9688 132.406 45.1905 132.304C46.876 132.227 47.8081 132.649 48.5998 132.662C48.8552 132.662 49.1105 132.623 49.3531 132.521C50.3874 132.061 50.4512 130.491 50.4512 130.491C50.4512 130.491 50.1576 131.053 49.7107 131.231C49.7107 131.231 51.4344 128.869 49.4425 127.248C47.4378 125.626 45.3948 126.686 44.2329 126.762C41.6791 126.916 40.032 127.069 39.1892 128.754C38.372 130.414 38.6913 134.96 40.2746 136.633C40.3001 136.658 40.3257 136.684 40.3384 136.709C40.3512 136.696 41.0152 136.594 40.913 135.662Z" fill="#2B478B"/>
<path d="M27.7227 182.638C27.8887 182.523 27.5567 182.089 27.4035 181.068C27.3779 180.915 27.1992 180.659 27.0204 180.429C26.8289 180.187 26.6246 179.982 26.6246 179.982C26.6246 179.982 26.4458 180.761 26.6757 181.438C26.7778 181.744 26.931 182.064 27.097 182.306C27.3013 182.587 27.5312 182.766 27.7227 182.638Z" fill="#FFB27D"/>
<path d="M232.431 160.51C232.431 160.459 233.171 158.914 233.171 158.403L232.329 158.659C232.405 159.195 232.431 159.923 232.431 160.51Z" fill="#FFB27D"/>
<path d="M250.818 133.351C255.989 132.611 256.691 137.756 256.449 139.148C256.41 139.391 256.346 139.646 256.27 139.901C256.678 140.374 256.998 140.629 256.998 140.629C256.998 140.629 256.653 140.846 255.9 140.923C255.363 142.251 254.661 143.362 254.661 143.362C254.597 143.528 254.533 143.694 254.444 143.834C254.444 144.141 254.444 144.434 254.457 144.728V144.741C254.457 144.741 255.121 143.209 256.002 143.681C257.368 144.434 260.011 141.408 259.168 137.424C259.079 136.99 258.964 136.607 258.849 136.237C258.377 136.033 258.019 135.764 258.019 135.764L255.414 131.87C255.414 131.87 255.414 131.857 255.414 131.844C252.656 129.355 248.443 133.658 247.408 134.807C247.574 134.666 247.728 134.551 247.881 134.449C249.311 133.492 250.818 133.351 250.818 133.351Z" fill="#233862"/>
<path d="M243.029 163.651C241.305 163.153 240.041 161.57 239.862 161.327C239.76 161.761 239.671 162.208 239.594 162.668C239.377 163.894 239.185 165.247 239.07 166.741C239.07 166.741 233.618 163.345 232.405 161.57L230.95 162.591C230.95 162.591 235.393 170.482 240.003 172.181C240.935 172.525 241.726 171.874 242.39 170.61C242.735 168.069 243.067 165.643 243.182 163.69C243.131 163.677 243.08 163.664 243.029 163.651Z" fill="#FFB27D"/>
<path d="M258.032 135.764C258.032 135.764 258.39 136.033 258.862 136.237C259.143 136.365 259.475 136.467 259.769 136.467C260.56 136.467 261.773 134.436 261.926 133.76C262.092 133.083 261.914 130.836 260.816 130.172C259.717 129.508 257.994 130.299 257.994 130.299C258.594 129.457 260.79 129.725 260.79 129.725C256.41 128.793 255.504 131.602 255.44 131.844C255.44 131.857 255.44 131.87 255.44 131.87L258.032 135.764Z" fill="#233862"/>
<path d="M248.839 150.397C248.66 150.717 246.272 154.343 246.451 155.275C246.642 156.245 255.121 155.377 255.708 154.841C255.951 154.624 256.245 153.807 256.513 152.913L255.849 150.014C255.849 150.014 255.9 150.014 255.976 150.027C255.389 149.555 254.585 147.652 254.457 144.741C254.444 144.447 254.431 144.153 254.444 143.847C254.278 144.153 254.048 144.422 253.793 144.651C253.052 146.043 251.661 147.805 249.362 147.869C249.362 147.295 249.337 146.707 249.324 146.209C249.349 146.707 249.362 147.295 249.362 147.869C249.362 149.082 249.298 150.231 249.017 150.372C248.928 150.385 248.839 150.385 248.775 150.397C248.813 150.385 248.851 150.385 248.839 150.397Z" fill="#FFB27D"/>
<path d="M249.362 147.869C251.66 147.805 253.052 146.03 253.793 144.651C252.567 145.762 250.524 146.107 249.324 146.209C249.349 146.694 249.362 147.294 249.362 147.869Z" fill="#E8945B"/>
<path d="M248.622 135.126C248.762 134.909 248.941 134.743 249.145 134.628C249.234 134.475 249.324 134.411 249.426 134.5C251.252 133.849 254.47 136.058 254.47 136.058C254.738 137.833 255.619 139.148 256.27 139.901C256.347 139.646 256.41 139.391 256.449 139.148C256.691 137.756 255.989 132.611 250.818 133.351C250.818 133.351 249.311 133.504 247.906 134.449C247.753 134.551 247.587 134.666 247.434 134.807C247.37 134.871 247.294 134.934 247.23 134.998C247.843 134.654 248.315 134.858 248.622 135.126Z" fill="#233862"/>
<path d="M255.9 140.923C255.606 140.961 255.261 140.974 254.853 140.948C254.84 141.383 254.827 141.83 254.827 142.302C254.827 142.685 254.763 143.043 254.661 143.362C254.661 143.362 255.363 142.251 255.9 140.923Z" fill="#233862"/>
<path d="M253.793 144.639C254.048 144.409 254.278 144.141 254.444 143.834C254.533 143.681 254.597 143.528 254.661 143.362C254.776 143.043 254.827 142.698 254.827 142.302C254.827 141.83 254.84 141.383 254.853 140.949C254.355 140.923 253.767 140.834 253.078 140.655C252.248 140.438 251.494 139.85 250.869 139.135C251.98 140.987 253.474 142.328 253.474 142.328C250.218 140.821 248.902 136.288 248.775 135.803C248.379 136.16 247.6 136.926 247.357 137.692C247.038 138.727 246.885 140.846 246.272 140.77C246.527 143.183 247.217 146.158 248.328 146.248C248.328 146.248 248.724 146.26 249.324 146.209C250.537 146.094 252.567 145.75 253.793 144.639ZM248.302 144.243C248.302 144.243 247.306 144.179 247.332 143.655C247.332 143.655 248.302 143.285 249.592 143.834C249.605 143.834 249.49 144.319 248.302 144.243Z" fill="#FFB27D"/>
<path d="M248.622 135.126C248.724 135.215 248.8 135.292 248.864 135.381C248.928 135.139 249.03 134.832 249.145 134.641C248.941 134.743 248.775 134.909 248.622 135.126Z" fill="#233862"/>
<path d="M255.9 140.923C256.64 140.834 256.998 140.629 256.998 140.629C256.998 140.629 256.679 140.374 256.27 139.901C255.619 139.148 254.738 137.846 254.47 136.058C254.47 136.058 251.252 133.862 249.426 134.5C249.541 134.628 249.656 135.049 249.745 135.981C249.847 137.092 250.307 138.178 250.869 139.135C251.507 139.85 252.248 140.451 253.078 140.655C253.767 140.834 254.355 140.923 254.853 140.948C255.274 140.974 255.619 140.961 255.9 140.923Z" fill="#233862"/>
<path d="M247.357 137.68C247.6 136.926 248.379 136.147 248.775 135.79C248.762 135.764 248.762 135.752 248.762 135.752C248.762 135.752 248.8 135.586 248.864 135.369C248.8 135.292 248.723 135.203 248.621 135.113C248.315 134.845 247.83 134.641 247.217 134.998C246.974 135.139 246.719 135.356 246.438 135.701C244.931 137.526 246.272 140.757 246.272 140.757C246.885 140.834 247.038 138.714 247.357 137.68Z" fill="#233862"/>
<path d="M253.678 238.361C253.678 238.361 253.678 238.374 253.678 238.361C254.533 236.28 255.657 233.215 256.538 229.704C256.64 229.295 256.742 228.887 256.832 228.465C256.206 223.115 255.376 217.867 254.469 216.143C251.724 210.985 250.294 196.045 249.656 187.107C247.421 187.107 244.995 186.826 243.386 185.882C243.527 191.104 244.446 201.242 248.8 213.666C250.664 218.991 251.252 224.571 251.29 229.295C251.316 232.858 251.047 235.922 250.779 238.029C250.856 238.042 251.137 238.157 252.158 239.025C252.72 239.51 253.678 238.361 253.678 238.361Z" fill="#2B478B"/>
<path d="M260.624 168.746C261.148 170.674 261.582 172.385 261.76 173.253C262.348 176.037 268.783 186.712 268.783 186.712L270.737 186.124C269.205 182.421 267.417 174.913 266.842 173.547C266.638 173.075 266.268 170.955 265.77 168.171C263.369 169.282 261.326 168.925 260.624 168.746Z" fill="#FFB27D"/>
<path d="M260.828 151.087C260.815 151.087 260.803 151.074 260.79 151.074C261.122 151.214 261.441 151.38 261.696 151.572C261.467 151.393 261.173 151.227 260.828 151.087Z" fill="#FFB27D"/>
<path d="M261.99 151.879C261.926 151.776 261.824 151.674 261.709 151.585C261.709 151.585 261.709 151.598 261.697 151.598C261.811 151.687 261.914 151.776 261.99 151.879Z" fill="#FFB27D"/>
<path d="M256.525 152.9C256.908 151.636 257.227 150.231 257.227 150.193C256.653 150.104 256.193 150.04 255.989 150.027C255.9 150.014 255.861 150.014 255.861 150.014L256.525 152.9Z" fill="#FFB27D"/>
<path d="M260.432 186.328C259.117 186.188 258.53 183.979 258.262 182.089C257.47 184.783 256.359 186.303 254.929 186.622C254.112 186.801 251.98 187.107 249.656 187.12C250.294 196.071 251.724 210.998 254.469 216.156C255.389 217.88 256.206 223.128 256.832 228.478C256.896 229.053 256.959 229.627 257.023 230.189C257.355 233.202 257.751 235.986 258.083 238.042C258.172 238.067 258.466 238.208 259.449 239.038C259.96 239.459 260.777 238.591 260.943 238.399C261.339 236.343 262.118 232.091 262.782 226.907C264.365 214.637 261.288 210.551 261.288 210.551C261.633 208.712 263.663 198.535 263.344 188.806C263.318 187.861 263.254 186.941 263.165 186.06C262.667 186.367 261.799 186.469 260.432 186.328Z" fill="#2B478B"/>
<path d="M249.426 134.5C249.336 134.411 249.234 134.475 249.145 134.628C249.03 134.82 248.928 135.126 248.864 135.369C248.8 135.586 248.762 135.752 248.762 135.752C248.762 135.752 248.762 135.764 248.775 135.79C248.902 136.275 250.217 140.808 253.474 142.315C253.474 142.315 251.967 140.987 250.869 139.123C250.307 138.178 249.834 137.08 249.745 135.969C249.656 135.049 249.541 134.628 249.426 134.5Z" fill="#233862"/>
<path d="M254.917 186.622C256.347 186.303 257.458 184.783 258.249 182.089C258.517 183.979 259.105 186.188 260.42 186.328C261.799 186.469 262.654 186.367 263.165 186.073C263.459 185.894 263.638 185.664 263.727 185.371C263.804 185.141 263.829 184.809 263.804 184.388C262.348 183.902 260.496 182.613 258.262 179.727C252.35 172.079 257.764 163.089 258.479 162.923C259.194 162.757 260.573 168.733 260.573 168.733C260.586 168.733 260.599 168.733 260.611 168.746C261.314 168.925 263.357 169.295 265.757 168.171C265.936 168.082 266.115 167.993 266.306 167.89C265.208 162.515 263.638 154.994 262.067 152.006C262.042 151.955 262.016 151.917 261.978 151.878C261.901 151.789 261.799 151.687 261.684 151.61C261.697 151.598 261.697 151.598 261.697 151.598C261.697 151.598 261.697 151.598 261.684 151.598C261.416 151.406 261.109 151.24 260.777 151.1C259.245 150.436 257.228 150.206 257.228 150.206C257.215 150.244 256.896 151.649 256.525 152.913C256.257 153.807 255.964 154.624 255.721 154.841C255.134 155.377 246.655 156.258 246.464 155.275C246.272 154.343 248.673 150.717 248.851 150.397C248.851 150.397 248.826 150.397 248.788 150.397C248.673 150.41 248.468 150.423 248.468 150.423C247.498 150.551 246.821 150.653 246.323 150.729C245.366 150.895 245.123 151.01 244.88 151.189C244.829 151.24 244.765 151.304 244.714 151.368C245.046 151.125 245.238 151.023 245.238 151.023C245.238 151.023 246.157 163.907 243.859 163.792C243.629 163.779 243.399 163.741 243.169 163.69C243.054 165.643 242.722 168.069 242.378 170.61C241.765 175.118 241.114 180.008 241.573 183.353C241.727 184.503 242.403 185.32 243.374 185.894C244.983 186.839 247.409 187.12 249.643 187.12C251.967 187.107 254.099 186.801 254.917 186.622Z" fill="#FFA25C"/>
<path d="M229.826 156.641L229.813 156.654C229.826 156.782 229.839 156.871 229.839 156.871V156.692L229.826 156.641Z" fill="#FFB27D"/>
<path d="M232.431 160.51C232.431 159.923 232.418 159.208 232.329 158.646L231.09 159.016L231.013 159.042C230.809 159.31 230.643 159.501 230.643 159.501L229.852 157.688V156.871L228.907 158.416C228.907 158.416 228.907 158.403 228.907 158.39C228.83 158.761 228.804 159.131 228.907 159.476C229.302 160.791 230.937 162.579 230.937 162.579L232.392 161.557C232.392 161.493 232.418 161.059 232.431 160.51Z" fill="#FFB27D"/>
<path d="M231.946 151.47L233.848 157.816C233.899 158.007 233.797 158.212 233.605 158.263L231.077 159.016L232.316 158.646L233.159 158.391L234.052 158.122C234.155 158.084 234.218 157.982 234.193 157.867L232.201 151.227C232.163 151.125 232.06 151.061 231.946 151.087L231.269 151.291L231.486 151.227C231.69 151.163 231.882 151.278 231.946 151.47Z" fill="#2B478B"/>
<path d="M229.392 154.011C229.494 154.343 229.698 155.862 229.788 156.539L229.813 156.641L229.826 156.68V156.628C229.826 156.628 231.077 154.7 231.384 154.815C231.805 154.969 230.349 157.267 230.247 157.407C230.324 157.292 231.409 155.594 231.588 155.722C231.997 156.041 231.345 157.178 230.694 158.059C230.694 158.059 231.869 156.986 231.907 157.178C231.997 157.624 231.396 158.505 230.988 159.042L231.064 159.016L233.593 158.263C233.784 158.212 233.886 158.007 233.835 157.816L231.933 151.47C231.882 151.278 231.677 151.176 231.486 151.227L231.269 151.291L228.804 152.032C228.613 152.083 228.511 152.287 228.562 152.479L229.226 154.713C229.302 154.202 229.353 153.883 229.392 154.011Z" fill="#233862"/>
<path d="M244.561 242.779C244.663 242.907 249.298 242.83 249.566 242.638C249.809 242.46 250.473 242.179 251.418 242.306C251.456 242.192 251.494 242.077 251.533 241.974C251.622 241.732 251.826 241.553 252.082 241.476C252.554 241.336 253.359 241.221 254.214 240.723C254.125 240.327 254.074 239.957 254.125 239.689C254.189 239.319 254.112 239.012 253.997 238.795C253.665 239.025 252.976 239.485 252.529 239.536C251.916 239.612 250.754 238.042 250.754 238.042C250.754 238.042 248.353 239.561 247.728 240.123C246.617 241.132 245.404 241.285 244.791 241.464C244.536 241.54 244.344 241.719 244.242 241.962C244.408 241.808 244.459 242.638 244.561 242.779Z" fill="#233862"/>
<path d="M252.516 239.536C252.976 239.472 253.665 239.025 253.984 238.795C253.857 238.54 253.691 238.386 253.678 238.374C253.678 238.374 252.72 239.523 252.158 239.05C251.137 238.182 250.843 238.067 250.779 238.054H250.767H250.754C250.741 238.042 251.903 239.612 252.516 239.536Z" fill="#466AA5"/>
<path d="M251.035 242.728C251.15 242.741 251.239 242.766 251.341 242.779C251.341 242.638 251.367 242.46 251.418 242.294C250.473 242.166 249.809 242.447 249.566 242.626C249.298 242.817 244.65 242.907 244.561 242.766C244.472 242.626 244.408 241.796 244.242 241.949C244.114 242.281 243.986 242.728 244.089 242.958C244.089 242.958 244.089 242.958 244.089 242.97C244.089 242.983 244.101 242.996 244.101 243.009H249.911C249.911 243.009 249.911 243.009 249.924 242.996C249.924 242.996 249.937 242.983 249.949 242.97C249.949 242.97 249.949 242.97 249.962 242.958C250.064 242.868 250.396 242.651 251.035 242.728Z" fill="#466AA5"/>
<path d="M259.82 239.536C259.207 239.612 258.045 238.042 258.045 238.042C258.045 238.042 255.644 239.561 255.019 240.123C254.75 240.366 254.47 240.557 254.201 240.71C253.346 241.196 252.542 241.323 252.069 241.464C251.814 241.54 251.622 241.719 251.52 241.962C251.699 241.808 251.75 242.638 251.839 242.779C251.941 242.907 256.576 242.83 256.845 242.638C257.113 242.447 257.917 242.102 259.041 242.37C260.011 242.6 261.454 242 261.812 241.847C261.595 241.183 261.314 240.212 261.39 239.689C261.454 239.319 261.377 239.012 261.263 238.795C260.969 239.025 260.279 239.472 259.82 239.536Z" fill="#233862"/>
<path d="M259.449 239.038C258.466 238.208 258.172 238.067 258.083 238.042C258.07 238.042 258.07 238.042 258.057 238.042H258.045C258.045 238.042 259.194 239.612 259.82 239.536C260.279 239.472 260.969 239.025 261.288 238.795C261.147 238.514 260.969 238.374 260.969 238.374C260.969 238.374 260.956 238.386 260.943 238.412C260.777 238.591 259.96 239.459 259.449 239.038Z" fill="#466AA5"/>
<path d="M262.08 242.523C262.08 242.523 261.965 242.243 261.824 241.847C261.467 242 260.037 242.6 259.053 242.37C257.93 242.102 257.125 242.447 256.857 242.638C256.589 242.83 251.941 242.919 251.852 242.779C251.75 242.651 251.699 241.808 251.533 241.962C251.494 242.064 251.456 242.179 251.418 242.294C251.367 242.46 251.341 242.638 251.341 242.779C251.341 242.855 251.354 242.919 251.379 242.97C251.379 242.97 251.379 242.97 251.379 242.983C251.379 242.996 251.392 243.009 251.392 243.021H257.202C257.202 243.021 257.202 243.021 257.215 243.009C257.215 243.009 257.228 242.996 257.24 242.983C257.24 242.983 257.24 242.983 257.253 242.97C257.355 242.881 257.687 242.651 258.326 242.728C258.747 242.779 259.053 242.894 259.437 242.97C259.449 242.97 259.462 242.97 259.475 242.983C259.513 242.996 259.551 242.996 259.59 243.009H260.956C261.007 242.996 261.058 242.996 261.096 242.983C261.109 242.983 261.122 242.983 261.135 242.97C262.144 242.817 262.08 242.523 262.08 242.523Z" fill="#466AA5"/>
<path d="M258.492 162.911C257.764 163.077 252.35 172.066 258.275 179.714C260.509 182.6 262.373 183.89 263.816 184.375C263.676 181.553 261.531 174.913 260.586 168.733C260.586 168.733 259.219 162.745 258.492 162.911Z" fill="#EF8C48"/>
<path d="M243.029 163.651C243.08 163.664 243.131 163.677 243.182 163.69C243.399 163.741 243.629 163.779 243.871 163.792C246.17 163.919 245.25 151.023 245.25 151.023C245.25 151.023 245.046 151.125 244.727 151.368C243.59 152.236 240.896 154.892 239.849 161.289C239.849 161.289 239.862 161.302 239.875 161.315C240.041 161.557 241.305 163.153 243.029 163.651Z" fill="#FFA25C"/>
<path d="M231.92 157.178C231.882 156.986 230.707 158.059 230.707 158.059C231.358 157.178 232.022 156.028 231.601 155.722C231.422 155.594 230.337 157.28 230.26 157.407C230.349 157.267 231.818 154.969 231.396 154.815C231.09 154.713 229.839 156.628 229.839 156.628V156.68V156.858V157.675L230.63 159.489C230.63 159.489 230.784 159.31 231.001 159.029C231.409 158.505 232.009 157.624 231.92 157.178Z" fill="#FFB27D"/>
<path d="M229.839 156.871C229.839 156.871 229.826 156.794 229.813 156.654C229.813 156.616 229.8 156.577 229.8 156.539C229.711 155.862 229.507 154.356 229.404 154.011C229.366 153.883 229.315 154.19 229.251 154.7C229.111 155.875 228.958 158.084 228.906 158.391C228.906 158.403 228.906 158.416 228.906 158.416L229.839 156.871Z" fill="#FFB27D"/>
<path d="M249.605 143.834C248.302 143.285 247.345 143.655 247.345 143.655C247.319 144.179 248.315 144.243 248.315 144.243C249.49 144.319 249.605 143.834 249.605 143.834Z" fill="white"/>
<path d="M269.039 187.222L271.018 188.55C271.018 188.55 271.12 188.92 271.222 189.355C272.039 189.572 273.048 189.763 273.444 190.466C274.044 191.513 274.644 191.423 274.644 191.423C274.644 191.423 274.58 191.244 274.478 190.963C274.401 190.938 274.325 190.9 274.274 190.836C274.07 190.491 273.099 188.55 273.099 188.55C273.125 188.589 273.482 188.972 273.891 189.418C273.712 188.972 273.546 188.563 273.431 188.346C273.074 187.682 270.724 186.124 270.724 186.124L268.771 186.712C268.783 186.699 268.885 186.916 269.039 187.222Z" fill="#FFB27D"/>
<path d="M269.039 187.222C269.039 187.235 269.434 189.061 269.907 189.597C270.392 190.134 271.043 191.04 271.311 190.797C271.465 190.657 271.35 189.942 271.209 189.355C271.107 188.92 271.005 188.55 271.005 188.55L269.039 187.222Z" fill="#FFB27D"/>
<path d="M274.287 190.836C274.338 190.912 274.401 190.951 274.491 190.963C274.784 191.04 275.244 190.836 275.244 190.836C275.244 190.836 274.516 190.057 273.903 189.406C273.495 188.959 273.137 188.576 273.112 188.537C273.112 188.55 274.069 190.504 274.287 190.836Z" fill="#FFB27D"/>
<path d="M271.222 120.914C271.388 124.975 272.512 128.486 275.206 130.989L272.18 138.561L278.347 133.083C280.824 134.258 284.055 134.909 288.217 134.909C289.417 134.909 290.541 134.858 291.588 134.768C301.343 133.913 304.804 129.176 304.357 121.923C303.706 111.108 297.053 108.095 290.043 107.469C288.958 107.367 287.86 107.328 286.774 107.328C278.717 107.341 270.839 111.517 271.222 120.914ZM277.517 121.119H288.664V121.987H277.517V121.119ZM277.517 124.413V123.545H292.137V124.413H277.517ZM298.075 121.987H289.545V121.119H298.075V121.987ZM292.137 118.68V119.548H277.517V118.68H292.137Z" fill="#4C88F2"/>
<path d="M292.137 118.68H277.517V119.548H292.137V118.68Z" fill="white"/>
<path d="M292.137 123.545H277.517V124.413H292.137V123.545Z" fill="white"/>
<path d="M288.664 121.119H277.517V121.987H288.664V121.119Z" fill="white"/>
<path d="M298.075 121.119H289.545V121.987H298.075V121.119Z" fill="white"/>
<path d="M61.1258 131.129L58.4444 137.833L63.9094 132.981C66.1056 134.015 68.9658 134.602 72.6431 134.602C83.5604 134.602 87.3527 130.223 86.9186 123.111C86.2418 112.053 78.4912 110.201 71.3663 110.201C64.2413 110.201 57.2696 113.892 57.6016 122.217C57.7421 125.805 58.7508 128.92 61.1258 131.129ZM81.3642 123.162H73.8179V122.396H81.3642V123.162ZM63.1688 120.25H76.1035V121.017H63.1688V120.25ZM63.1688 122.396H73.039V123.162H63.1688V122.396ZM63.1688 124.553H76.1035V125.32H63.1688V124.553Z" fill="#FFA25C"/>
<path d="M76.1036 120.25H63.1689V121.017H76.1036V120.25Z" fill="white"/>
<path d="M76.1036 124.553H63.1689V125.32H76.1036V124.553Z" fill="white"/>
<path d="M73.0392 122.396H63.1689V123.162H73.0392V122.396Z" fill="white"/>
<path d="M81.3642 122.396H73.8179V123.162H81.3642V122.396Z" fill="white"/>
<path d="M77.1505 83.068C77.2399 83.4638 77.6102 83.7447 78.0316 83.7064L81.0833 83.3872C81.428 83.3489 81.7473 83.5404 81.8877 83.8468C82.4878 85.1365 83.2923 86.3367 84.2627 87.3838C84.5053 87.6519 84.5308 88.0478 84.3265 88.3542L82.8071 90.627C82.5772 90.9718 82.6411 91.4315 82.9603 91.6868L85.5523 93.8703C85.8588 94.1257 86.3185 94.1129 86.5866 93.8192L89.1403 91.2782C89.3574 91.0612 89.6766 90.9846 89.9703 91.0867C90.3278 91.2016 90.6981 91.3165 91.0684 91.4059C91.7707 91.5847 92.473 91.6996 93.1625 91.7634C93.4817 91.789 93.7498 92.006 93.8392 92.2997L94.9373 95.875C95.065 96.2708 95.4609 96.5006 95.8567 96.4113L99.1765 95.6962C99.5213 95.6196 99.7767 95.3131 99.7894 94.9556C99.7894 94.9173 99.7894 94.879 99.7894 94.8407L99.4319 91.4442C99.3936 91.125 99.5468 90.8186 99.8277 90.6653C99.8533 90.6526 99.8788 90.6398 99.9044 90.627C99.981 90.5887 100.058 90.5632 100.134 90.5249C101.028 90.1163 101.871 89.6055 102.662 89.0182C102.918 88.8139 103.288 88.8139 103.556 89.0054L105.957 90.6143C106.301 90.8441 106.761 90.7803 107.017 90.461L107.502 89.8864L109.187 87.8818C109.455 87.5625 109.43 87.1029 109.136 86.8092L107.004 84.6768C106.774 84.447 106.723 84.1022 106.851 83.8085C107.208 83.0424 107.489 82.2252 107.706 81.3697C107.859 80.7313 107.974 80.0928 108.038 79.4544L108.664 79.2629L111.217 78.4712C111.537 78.3818 111.754 78.0882 111.766 77.7689C111.766 77.7051 111.766 77.6413 111.754 77.5646L111.039 74.232C110.949 73.8362 110.579 73.5808 110.183 73.6191L108.089 73.849C107.732 73.8873 107.4 73.683 107.272 73.3382C106.761 71.9592 106.046 70.6695 105.14 69.5204C104.922 69.2522 104.91 68.8819 105.101 68.601L107.029 65.7281C107.246 65.4088 107.183 64.9747 106.889 64.7193L104.271 62.5104C103.965 62.2422 103.505 62.2677 103.224 62.5487L100.568 65.2045C100.338 65.4344 99.9937 65.4982 99.7001 65.3705C99.0616 65.1024 98.3849 64.8853 97.6954 64.7066C97.3251 64.6172 96.942 64.5406 96.5717 64.4767C96.278 64.4257 96.0354 64.2214 95.9461 63.9404L94.8863 60.5184C94.7586 60.1226 94.3627 59.88 93.9541 59.9694L90.7237 60.6717L90.647 60.6844C90.2512 60.7738 89.9959 61.1441 90.0342 61.5399L90.3278 64.2852C90.3278 64.3363 90.3278 64.3746 90.3278 64.4129C90.3023 64.7193 90.1108 64.9875 89.8171 65.0896C88.0933 65.7025 86.4972 66.6602 85.1437 67.8987C85.0927 67.9498 85.0288 67.9881 84.965 68.0264C84.7224 68.1413 84.4159 68.1286 84.1733 67.9754L82.258 66.6857C82.0026 66.5197 81.6834 66.5197 81.428 66.6602C81.3514 66.7113 81.2748 66.7623 81.211 66.8389L79.0403 69.4182C78.7721 69.7374 78.7977 70.2099 79.0914 70.5036L81.262 72.6742C81.4791 72.8913 81.543 73.2105 81.4408 73.4914C81.3004 73.9 81.1727 74.3214 81.0705 74.7555C80.8662 75.56 80.7513 76.3644 80.7002 77.1688C80.6747 77.5008 80.4576 77.7817 80.1384 77.8839L77.1633 78.8032L77.0101 78.8543C76.627 78.9692 76.3972 79.365 76.4738 79.7609L77.1505 83.068ZM87.4166 75.4706C87.7358 74.6151 88.221 73.7723 88.885 72.9679C89.0254 72.8019 89.2042 72.6232 89.3957 72.4444C90.2385 71.7038 91.4642 71.0398 92.4219 70.8355C99.7256 69.2905 104.565 77.156 100.019 82.9403C99.9427 83.0297 99.866 83.1318 99.7894 83.2212C99.0488 84.0895 97.5294 85.0088 96.4057 85.2642C95.8184 85.3919 95.2566 85.4685 94.7075 85.4812C89.2042 85.6345 85.6162 80.3482 87.4166 75.4706Z" fill="#DFEDFB"/>
<path d="M117.959 234.122C117.959 237.914 121.049 241.004 124.842 241.004H193.959C197.751 241.004 200.841 237.914 200.841 234.122V102.642C200.841 102.821 200.841 103.013 200.828 103.204V111.338H117.998V103.128C117.998 102.106 118.049 101.161 118.176 100.28C118.049 100.804 117.972 101.353 117.972 101.915V234.122H117.959ZM133.563 224.481V213.526H135.312V224.481H133.563ZM138.555 224.481V210.372H140.305V224.481H138.555ZM145.297 224.481H143.548V213.283H145.297V224.481ZM150.29 224.481H148.54V208.214H150.29V224.481ZM155.269 224.481H153.52V204.894H155.269V224.481ZM160.262 224.481H158.513V207.908H160.262V224.481ZM165.255 224.481H163.505V212.772H165.255V224.481ZM170.247 224.481H168.498V216.348H170.247V224.481ZM175.24 224.481H173.49V214.1H175.24V224.481ZM180.232 224.481H178.483V210.372H180.232V224.481ZM185.212 224.481H183.463V212.772H185.212V224.481ZM159.394 126.711C177.398 126.711 192.005 141.306 192.005 159.323C192.005 177.339 177.398 191.934 159.394 191.934C141.39 191.934 126.783 177.339 126.783 159.323C126.783 141.306 141.377 126.711 159.394 126.711Z" fill="#FFA25C"/>
<path d="M200.816 101.915C200.816 101.417 200.765 100.944 200.662 100.484C200.765 101.11 200.816 101.787 200.816 102.54V101.915Z" fill="#FFA25C"/>
<path d="M195.184 95.1471C194.776 95.0705 194.367 95.0322 193.946 95.0322H186.157L192.695 95.0833C193.576 95.0322 194.406 95.045 195.184 95.1471Z" fill="#FFA25C"/>
<path d="M117.985 111.338H200.815V103.204C200.828 103.013 200.828 102.834 200.828 102.642V102.515C200.828 101.761 200.777 101.085 200.675 100.459C200.1 97.7519 197.93 95.6323 195.197 95.1344C194.418 95.0322 193.588 95.0194 192.707 95.0705L186.17 95.0194H124.842C121.611 95.0194 118.904 97.254 118.164 100.255C118.036 101.136 117.985 102.093 117.985 103.102V111.338ZM189.451 108.171L187.855 107.048C188.213 106.55 188.787 106.218 189.451 106.218C190.103 106.218 190.677 106.537 191.035 107.035L189.451 108.171ZM192.273 106.141C191.635 105.26 190.6 104.685 189.439 104.685C188.264 104.685 187.217 105.273 186.591 106.167L185.582 105.464C186.438 104.251 187.842 103.46 189.439 103.46C191.009 103.46 192.414 104.238 193.269 105.426L192.273 106.141ZM194.227 104.736C193.154 103.255 191.405 102.298 189.439 102.298C187.459 102.298 185.697 103.281 184.625 104.775L183.616 104.072C184.906 102.259 187.038 101.072 189.439 101.072C191.814 101.072 193.92 102.234 195.223 104.034L194.227 104.736ZM189.451 98.1733C192.797 98.1733 195.759 99.8205 197.559 102.349L196.563 103.064C194.98 100.855 192.375 99.3991 189.451 99.3991C186.502 99.3991 183.884 100.868 182.301 103.115L181.292 102.413C183.092 99.8588 186.08 98.1733 189.451 98.1733Z" fill="white"/>
<path d="M159.394 191.934C177.397 191.934 192.005 177.339 192.005 159.323C192.005 141.306 177.397 126.711 159.394 126.711C141.39 126.711 126.782 141.306 126.782 159.323C126.782 177.339 141.377 191.934 159.394 191.934ZM151.656 154.981H156.035V153.526H151.656V151.636H156.035V150.18H151.656V148.201H156.035V146.745H151.656V140.91C151.656 136.837 154.988 133.492 159.074 133.492H159.713C163.786 133.492 167.131 136.824 167.131 140.91V146.745H163.058V148.201H167.131V150.18H163.058V151.636H167.131V153.526H163.058V154.981H167.131V160.102C167.131 164.175 163.799 167.52 159.713 167.52H159.074C155.001 167.52 151.656 164.188 151.656 160.102V154.981ZM146.025 145.992C146.025 145.341 146.548 144.817 147.2 144.817C147.851 144.817 148.374 145.341 148.374 145.992V159.642C148.374 165.707 153.316 170.648 159.381 170.648C165.446 170.648 170.387 165.707 170.387 159.642V145.992C170.387 145.341 170.911 144.817 171.562 144.817C172.213 144.817 172.737 145.341 172.737 145.992V159.642C172.737 166.614 167.374 172.359 160.556 172.947V184.656C160.556 185.307 160.032 185.83 159.381 185.83C158.73 185.83 158.206 185.307 158.206 184.656V172.947C151.388 172.347 146.025 166.614 146.025 159.642V145.992Z" fill="#ED7D2B"/>
<path d="M159.074 167.52H159.713C163.786 167.52 167.131 164.187 167.131 160.102V154.981H163.058V153.526H167.131V151.636H163.058V150.18H167.131V148.201H163.058V146.745H167.131V140.91C167.131 136.837 163.799 133.492 159.713 133.492H159.074C155.001 133.492 151.656 136.824 151.656 140.91V146.745H156.035V148.201H151.656V150.18H156.035V151.636H151.656V153.526H156.035V154.981H151.656V160.102C151.656 164.175 154.988 167.52 159.074 167.52Z" fill="white"/>
<path d="M160.569 171.836V172.96C167.387 172.359 172.75 166.626 172.75 159.655V145.992C172.75 145.341 172.226 144.817 171.575 144.817C170.924 144.817 170.4 145.341 170.4 145.992V159.642C170.4 165.707 165.459 170.648 159.394 170.648C160.045 170.648 160.569 171.185 160.569 171.836Z" fill="white"/>
<path d="M158.206 172.96V171.836C158.206 171.185 158.73 170.661 159.381 170.661C153.316 170.661 148.374 165.72 148.374 159.655V145.992C148.374 145.341 147.851 144.817 147.2 144.817C146.548 144.817 146.025 145.341 146.025 145.992V159.642C146.025 166.614 151.388 172.359 158.206 172.96Z" fill="white"/>
<path d="M158.206 171.836V172.96V184.668C158.206 185.32 158.73 185.843 159.381 185.843C160.032 185.843 160.556 185.32 160.556 184.668V172.96V171.836C160.556 171.185 160.032 170.661 159.381 170.661C158.742 170.648 158.206 171.185 158.206 171.836Z" fill="white"/>
<path d="M135.312 213.526H133.563V224.481H135.312V213.526Z" fill="white"/>
<path d="M140.305 210.359H138.555V224.469H140.305V210.359Z" fill="white"/>
<path d="M145.284 213.283H143.535V224.481H145.284V213.283Z" fill="white"/>
<path d="M150.277 208.214H148.528V224.481H150.277V208.214Z" fill="white"/>
<path d="M155.269 204.894H153.52V224.481H155.269V204.894Z" fill="white"/>
<path d="M160.262 207.908H158.513V224.481H160.262V207.908Z" fill="white"/>
<path d="M165.255 212.772H163.505V224.481H165.255V212.772Z" fill="white"/>
<path d="M170.247 216.348H168.498V224.481H170.247V216.348Z" fill="white"/>
<path d="M175.227 214.1H173.478V224.481H175.227V214.1Z" fill="white"/>
<path d="M180.22 210.359H178.47V224.469H180.22V210.359Z" fill="white"/>
<path d="M185.212 212.772H183.463V224.481H185.212V212.772Z" fill="white"/>
<path d="M189.451 106.218C188.8 106.218 188.213 106.55 187.855 107.048L189.451 108.171L191.035 107.035C190.677 106.537 190.103 106.218 189.451 106.218Z" fill="#ED7D2B"/>
<path d="M189.451 103.447C187.855 103.447 186.451 104.238 185.595 105.451L186.604 106.154C187.242 105.26 188.277 104.673 189.451 104.673C190.613 104.673 191.647 105.247 192.286 106.128L193.282 105.413C192.426 104.226 191.022 103.447 189.451 103.447Z" fill="#ED7D2B"/>
<path d="M189.451 99.4119C192.375 99.4119 194.98 100.855 196.563 103.077L197.559 102.361C195.746 99.8333 192.784 98.1861 189.451 98.1861C186.08 98.1861 183.105 99.8588 181.292 102.425L182.301 103.128C183.871 100.88 186.489 99.4119 189.451 99.4119Z" fill="#ED7D2B"/>
<path d="M189.451 101.059C187.051 101.059 184.931 102.247 183.629 104.06L184.637 104.762C185.71 103.268 187.472 102.285 189.451 102.285C191.418 102.285 193.167 103.255 194.239 104.724L195.235 104.009C193.933 102.221 191.826 101.059 189.451 101.059Z" fill="#ED7D2B"/>
<path d="M115.98 188.614V210.295V213.36V213.398V219.412V234.109C115.98 238.987 119.951 242.958 124.829 242.958H193.946C198.823 242.958 202.795 238.987 202.795 234.109V216.654V206.018V201.613V185.55V144.153V116.994V101.915C202.795 100.395 202.411 98.965 201.735 97.7136C200.241 94.9556 197.304 93.0658 193.946 93.0658H188.762H136.499H124.842C119.964 93.0658 115.993 97.0369 115.993 101.915V103.792V157.101V188.614H115.98ZM124.829 95.0322H186.157H193.946C194.367 95.0322 194.789 95.0705 195.184 95.1471C197.917 95.6451 200.088 97.7647 200.662 100.472C200.764 100.931 200.815 101.417 200.815 101.902V102.515V102.642V234.109C200.815 237.901 197.725 240.991 193.933 240.991H124.816C121.024 240.991 117.934 237.901 117.934 234.109V101.915C117.934 101.353 117.998 100.804 118.138 100.28C118.891 97.2667 121.611 95.0322 124.829 95.0322Z" fill="#2B478B"/>
</g>
<defs>
<clipPath id="clip0_24_439">
<rect width="297" height="198.553" fill="white" transform="translate(10 54.4405)"/>
</clipPath>
</defs>
</svg>
