<svg width="35" height="35" viewBox="0 0 35 35" fill="none" xmlns="http://www.w3.org/2000/svg">
<path d="M3.80232 0.587402C2.90028 0.587402 2.03518 0.945738 1.39734 1.58358C0.759497 2.22142 0.401161 3.08652 0.401161 3.98856V31.1979C0.401161 32.0999 0.759497 32.965 1.39734 33.6029C2.03518 34.2407 2.90028 34.599 3.80232 34.599H31.0116C31.9137 34.599 32.7788 34.2407 33.4166 33.6029C34.0545 32.965 34.4128 32.0999 34.4128 31.1979V3.98856C34.4128 3.08652 34.0545 2.22142 33.4166 1.58358C32.7788 0.945738 31.9137 0.587402 31.0116 0.587402H3.80232ZM3.80232 3.98856H31.0116V31.1979H3.80232V3.98856ZM15.7064 9.09031V15.8926H19.1076V9.09031H15.7064ZM7.20349 22.2698V26.0961H13.1555V22.2698H7.20349ZM21.6584 22.2698V26.0961H27.6105V22.2698H21.6584Z" fill="#878787"/>
</svg>
