<svg width="31" height="17" viewBox="0 0 31 17" fill="none" xmlns="http://www.w3.org/2000/svg">
<path d="M8.76831 16.5781C6.52439 16.5781 4.61705 15.7928 3.04631 14.222C1.47556 12.6513 0.690186 10.7439 0.690186 8.5C0.690186 6.25608 1.47556 4.34874 3.04631 2.77799C4.61705 1.20725 6.52439 0.421875 8.76831 0.421875H22.2319C24.4758 0.421875 26.3831 1.20725 27.9539 2.77799C29.5246 4.34874 30.31 6.25608 30.31 8.5C30.31 10.7439 29.5246 12.6513 27.9539 14.222C26.3831 15.7928 24.4758 16.5781 22.2319 16.5781H8.76831ZM8.76831 14.5586H22.2319C23.9148 14.5586 25.3453 13.9696 26.5234 12.7915C27.7014 11.6134 28.2904 10.1829 28.2904 8.5C28.2904 6.81706 27.7014 5.38656 26.5234 4.2085C25.3453 3.03044 23.9148 2.44141 22.2319 2.44141H8.76831C7.08537 2.44141 5.65487 3.03044 4.47681 4.2085C3.29875 5.38656 2.70972 6.81706 2.70972 8.5C2.70972 10.1829 3.29875 11.6134 4.47681 12.7915C5.65487 13.9696 7.08537 14.5586 8.76831 14.5586ZM22.2655 11.8995C23.208 11.8995 24.0102 11.5686 24.6721 10.9066C25.3341 10.2447 25.6651 9.44245 25.6651 8.5C25.6651 7.55755 25.3341 6.75535 24.6721 6.09339C24.0102 5.43143 23.208 5.10046 22.2655 5.10046C21.3231 5.10046 20.5209 5.43143 19.8589 6.09339C19.1969 6.75535 18.866 7.55755 18.866 8.5C18.866 9.44245 19.1969 10.2447 19.8589 10.9066C20.5209 11.5686 21.3231 11.8995 22.2655 11.8995Z" fill="#009785"/>
</svg>
