<svg width="37" height="33" viewBox="0 0 37 33" fill="none" xmlns="http://www.w3.org/2000/svg">
<path d="M13.3952 32.3948C12.8871 32.3948 12.4616 32.2227 12.1185 31.8784C11.7743 31.5353 11.6021 31.1098 11.6021 30.6018V28.8088H4.43011C3.44395 28.8088 2.60004 28.4579 1.89838 27.7563C1.19552 27.0534 0.844086 26.2089 0.844086 25.2228V3.70663C0.844086 2.72047 1.19552 1.87596 1.89838 1.1731C2.60004 0.471438 3.44395 0.120605 4.43011 0.120605H33.1183C34.1044 0.120605 34.9489 0.471438 35.6518 1.1731C36.3535 1.87596 36.7043 2.72047 36.7043 3.70663V25.2228C36.7043 26.2089 36.3535 27.0534 35.6518 27.7563C34.9489 28.4579 34.1044 28.8088 33.1183 28.8088H25.9462V30.6018C25.9462 31.1098 25.7747 31.5353 25.4316 31.8784C25.0874 32.2227 24.6612 32.3948 24.1532 32.3948H13.3952ZM4.43011 25.2228H33.1183V3.70663H4.43011V25.2228ZM4.43011 25.2228V3.70663V25.2228Z" fill="#878787"/>
</svg>
