<svg width="45" height="44" viewBox="0 0 45 44" fill="none" xmlns="http://www.w3.org/2000/svg">
<path d="M13.3538 2.06056C13.3538 2.06056 12.5203 2.05098 11.6688 2.47673C10.8173 2.90247 9.91791 3.89732 9.91791 5.50152C9.91791 7.10571 10.8173 8.09548 11.6688 8.52123C12.5203 8.94698 13.3538 8.93739 13.3538 8.93739H31.2285C31.2285 8.93739 32.0619 8.94698 32.9134 8.52123C33.7649 8.09548 34.6643 7.10571 34.6643 5.50152C34.6643 3.89732 33.7649 2.90247 32.9134 2.47673C32.0619 2.05098 31.2285 2.06056 31.2285 2.06056H13.3538ZM13.3538 3.43593H31.2285C31.2285 3.43593 31.7707 3.44822 32.2942 3.70999C32.8178 3.97175 33.289 4.35566 33.289 5.50152C33.289 6.64737 32.8178 7.03128 32.2942 7.29304C31.7707 7.55481 31.2285 7.56203 31.2285 7.56203H13.3538C13.3538 7.56203 12.8115 7.5548 12.288 7.29304C11.7645 7.03128 11.2882 6.64737 11.2882 5.50152C11.2882 4.35566 11.7645 3.97175 12.288 3.70999C12.8115 3.44822 13.3538 3.43593 13.3538 3.43593Z" fill="#878787"/>
<path d="M12.6636 8.25195V17.8744H14.0389V8.25195H12.6636ZM30.5433 8.25195V17.8744H31.9136V8.25195H30.5433Z" fill="#878787"/>
<path d="M10.532 17.1894C10.3631 17.2076 10.2069 17.2876 10.0935 17.4141C9.98008 17.5406 9.91754 17.7046 9.91791 17.8745V21.3104C9.91791 22.9146 10.8173 23.9095 11.6688 24.3352C12.5203 24.761 13.3538 24.7514 13.3538 24.7514H31.2285C31.2285 24.7514 32.0619 24.761 32.9134 24.3352C33.7649 23.9095 34.6643 22.9146 34.6643 21.3104V17.8745C34.6637 17.693 34.5913 17.5191 34.463 17.3908C34.3346 17.2624 34.1607 17.19 33.9792 17.1894H10.6031C10.5794 17.1882 10.5557 17.1882 10.532 17.1894H10.532ZM11.2882 18.5648H33.289V21.3104C33.289 22.4563 32.8178 22.8402 32.2942 23.1019C31.7707 23.3637 31.2285 23.376 31.2285 23.376H13.3538C13.3538 23.376 12.8115 23.3637 12.288 23.1019C11.7645 22.8402 11.2882 22.4563 11.2882 21.3104V18.5648Z" fill="#878787"/>
<path d="M11.9784 24.0615V26.1271C11.9784 26.1271 11.9689 28.3635 13.2726 30.5983C14.5762 32.8332 17.2821 35.0644 22.2911 35.0644C27.3001 35.0644 30.0009 32.8332 31.3046 30.5983C32.6082 28.3635 32.6038 26.1271 32.6038 26.1271V24.0615H31.2284V26.1271C31.2284 26.1271 31.2196 28.0128 30.117 29.903C29.0143 31.7932 26.9073 33.6891 22.2911 33.6891C17.6749 33.6891 15.5628 31.7932 14.4601 29.903C13.3575 28.0128 13.3538 26.1271 13.3538 26.1271V24.0615H11.9784Z" fill="#878787"/>
<path d="M16.7947 33.6281L16.1045 41.1901C16.0964 41.285 16.1081 41.3805 16.1388 41.4706C16.1696 41.5608 16.2187 41.6435 16.2831 41.7137C16.3476 41.7838 16.4258 41.8398 16.513 41.8781C16.6002 41.9164 16.6944 41.9362 16.7896 41.9362H27.7925C27.8878 41.9362 27.982 41.9164 28.0691 41.8781C28.1563 41.8398 28.2346 41.7838 28.299 41.7137C28.3634 41.6435 28.4126 41.5608 28.4433 41.4706C28.4741 41.3805 28.4858 41.285 28.4777 41.1901L27.7875 33.6281L26.4172 33.7499L27.0414 40.5659H17.5407L18.165 33.7499L16.7947 33.6281ZM28.4777 10.998C27.2173 10.998 26.3967 11.7344 26.0568 12.414C25.717 13.0936 25.727 13.7488 25.727 13.7488H27.1023C27.1023 13.7488 27.1143 13.3798 27.2901 13.0281C27.4659 12.6765 27.6756 12.3734 28.4777 12.3734H35.3545V10.998H28.4777ZM28.4777 26.1271C28.4777 26.1271 28.4865 27.1135 27.7367 28.2383C26.9868 29.3631 25.4996 30.6154 22.22 30.9434L22.3571 32.3086C25.9527 31.949 27.9097 30.453 28.8786 28.9996C29.8475 27.5462 29.8531 26.1271 29.8531 26.1271H28.4777Z" fill="#878787"/>
</svg>
